<?xml version="1.0" encoding="utf-8"?>
<!-- Generator: Adobe Illustrator 27.5.0, SVG Export Plug-In . SVG Version: 6.00 Build 0)  -->
<svg version="1.1" xmlns="http://www.w3.org/2000/svg" xmlns:xlink="http://www.w3.org/1999/xlink" x="0px" y="0px"
	 viewBox="0 0 500 500" style="enable-background:new 0 0 500 500;" xml:space="preserve">
<g id="Background_Complete">
	<g>
		<g>
			<g>
				<g>
					<g>
						<path style="fill:#F5F5F5;" d="M177.342,437.825c23.227-20.07,25.557-53.115,21.556-82.191
							c-0.667-4.853-0.662-10.043-3.419-14.078c-2.759-4.033-8.465-6.396-12.614-3.894c-3.442,2.076-4.583,6.446-6.248,10.134
							c-2.214,4.908-5.83,9.152-10.297,12.089c-2.936,1.929-6.671,3.309-9.907,1.937c-4.44-1.885-5.534-7.637-6.004-12.486
							c-0.874-9.035-1.75-18.069-2.625-27.102c-0.469-4.847-0.966-9.794-2.946-14.237c-1.981-4.442-5.751-8.369-10.492-9.185
							c-4.742-0.815-10.166,2.43-10.65,7.271c-0.202,2.015,0.412,4.022,0.485,6.046c0.073,2.025-0.634,4.347-2.486,5.104
							c-1.875,0.768-3.955-0.406-5.549-1.674c-5.505-4.375-9.547-10.326-13.365-16.265c-3.817-5.939-7.557-12.036-12.644-16.903
							c-5.087-4.867-11.798-8.447-18.776-8.124c-6.979,0.323-13.928,5.368-14.979,12.359c-1.054,7.011,3.646,13.528,8.551,18.609
							c7.278,7.538,15.636,14.007,24.727,19.137c1.639,0.926,3.415,1.927,4.184,3.661c1.385,3.121-1.344,6.644-4.423,8.035
							c-3.487,1.575-7.443,1.604-11.174,2.439c-3.731,0.834-7.651,2.922-8.712,6.64c-1.473,5.156,3.203,9.919,7.628,12.897
							c8.861,5.965,18.732,10.381,29.046,12.997c3.698,0.936,7.566,1.693,10.698,3.9c3.132,2.208,5.315,6.382,3.931,9.973
							c-1.385,3.595-5.728,5.147-9.532,4.839c-3.802-0.306-7.353-1.989-11.049-2.963c-6.916-1.826-15.465-0.48-19.136,5.713
							c-2.412,4.071-2.116,9.362-0.233,13.724c1.881,4.362,5.157,7.948,8.579,11.214c11.961,11.417,26.659,20.086,42.655,23.847
							C148.116,445.048,162.574,445.021,177.342,437.825"/>
					</g>
				</g>
			</g>
		</g>
		<g>
			<g>
				<g>
					<g>
						<g>
							<path style="fill:#E0E0E0;" d="M179.957,459.418c-2.25-11.45-6.193-24.839-12.033-39.107
								c-5.814-14.282-13.484-29.409-22.051-44.955c-2.156-3.878-4.286-7.71-6.385-11.487c-2.104-3.765-4.191-7.5-6.458-11.025
								c-4.504-7.074-9.373-13.531-14.186-19.516c-4.812-5.99-9.598-11.498-14.109-16.615c-4.525-5.11-8.832-9.794-12.939-13.895
								c-8.193-8.236-15.573-14.084-20.804-17.891c-2.612-1.913-4.687-3.33-6.107-4.272c-0.682-0.446-1.217-0.797-1.621-1.061
								c-0.368-0.234-0.56-0.348-0.569-0.335c-0.01,0.013,0.166,0.153,0.517,0.412c0.391,0.282,0.911,0.657,1.571,1.134
								c1.385,0.99,3.426,2.452,6.004,4.405c5.159,3.89,12.451,9.794,20.562,18.062c4.068,4.118,8.337,8.815,12.83,13.939
								c4.485,5.136,9.242,10.653,14.026,16.641c4.783,5.985,9.619,12.43,14.087,19.47c2.249,3.51,4.314,7.213,6.42,10.989
								c2.097,3.775,4.225,7.606,6.379,11.483c8.559,15.534,16.233,30.612,22.072,44.834c5.863,14.206,9.853,27.522,12.173,38.915"
								/>
						</g>
					</g>
				</g>
			</g>
		</g>
		<g>
			<g>
				<g>
					<g>
						<g>
							<path style="fill:#E0E0E0;" d="M132.771,352.836c0.061,0.003,0.15-0.75,0.26-2.115c0.116-1.365,0.219-3.344,0.311-5.792
								c0.188-4.894,0.215-11.661,0.218-19.121c0.002-7.465,0.126-14.212,0.388-19.089c0.124-2.439,0.244-4.412,0.345-5.775
								c0.093-1.364,0.115-2.123,0.054-2.131c-0.061-0.007-0.201,0.737-0.4,2.093c-0.207,1.354-0.425,3.326-0.628,5.767
								c-0.425,4.884-0.651,11.658-0.652,19.129c0.016,7.363,0.031,14.023,0.043,19.112c-0.009,2.299-0.019,4.237-0.026,5.792
								C132.681,352.073,132.708,352.833,132.771,352.836z"/>
						</g>
					</g>
				</g>
			</g>
		</g>
		<g>
			<g>
				<g>
					<g>
						<g>
							<path style="fill:#E0E0E0;" d="M69.29,347.621c0.005,0.062,0.901,0.073,2.515,0.041c1.613-0.022,3.946-0.068,6.83-0.031
								c5.768,0.027,13.734,0.344,22.507,1.078c8.775,0.75,16.687,1.766,22.388,2.667c2.856,0.43,5.156,0.84,6.748,1.114
								c1.591,0.28,2.477,0.407,2.492,0.346c0.013-0.062-0.85-0.304-2.424-0.692c-1.574-0.379-3.864-0.887-6.714-1.401
								c-5.691-1.065-13.618-2.185-22.42-2.939c-8.799-0.735-16.8-0.952-22.584-0.814c-2.893,0.046-5.231,0.188-6.843,0.32
								C70.175,347.452,69.287,347.558,69.29,347.621z"/>
						</g>
					</g>
				</g>
			</g>
		</g>
		<g>
			<g>
				<g>
					<g>
						<g>
							<path style="fill:#E0E0E0;" d="M167.04,419.244c0.03,0.01,0.148-0.266,0.349-0.803c0.225-0.639,0.5-1.419,0.833-2.363
								c0.714-2.055,1.669-5.056,2.801-8.779c2.269-7.445,5.079-17.827,8.025-29.325c2.949-11.503,5.658-21.897,7.768-29.378
								c1.037-3.638,1.891-6.63,2.525-8.854c0.27-0.965,0.492-1.76,0.674-2.414c0.144-0.554,0.207-0.85,0.177-0.861
								c-0.03-0.008-0.148,0.268-0.349,0.805c-0.225,0.639-0.5,1.417-0.833,2.361c-0.714,2.055-1.669,5.056-2.801,8.779
								c-2.269,7.445-5.079,17.827-8.026,29.33c-2.947,11.5-5.657,21.892-7.767,29.375c-1.039,3.636-1.891,6.63-2.525,8.853
								c-0.27,0.965-0.492,1.762-0.674,2.414C167.072,418.939,167.01,419.235,167.04,419.244z"/>
						</g>
					</g>
				</g>
			</g>
		</g>
		<g>
			<g>
				<g>
					<g>
						<g>
							<path style="fill:#E0E0E0;" d="M81.528,401.109c-0.005,0.031,0.29,0.117,0.856,0.254c0.67,0.15,1.491,0.334,2.487,0.558
								c2.294,0.491,5.391,1.153,9.159,1.958c7.733,1.655,18.387,4.063,30.157,6.74c11.773,2.679,22.46,4.991,30.23,6.486
								c3.885,0.749,7.034,1.323,9.218,1.675c1.009,0.156,1.841,0.285,2.517,0.391c0.577,0.079,0.884,0.105,0.889,0.075
								c0.005-0.031-0.291-0.117-0.856-0.255c-0.668-0.149-1.49-0.332-2.486-0.556c-2.294-0.491-5.39-1.152-9.157-1.958
								c-7.733-1.654-18.389-4.063-30.162-6.741c-11.769-2.678-22.455-4.99-30.225-6.485c-3.885-0.749-7.034-1.323-9.219-1.675
								c-1.009-0.156-1.84-0.287-2.518-0.391C81.839,401.104,81.534,401.078,81.528,401.109z"/>
						</g>
					</g>
				</g>
			</g>
		</g>
	</g>
	<g>
		<g>
			<g>
				<path style="fill:#E0E0E0;" d="M153.57,216.822c-0.749,0-1.468-0.421-1.815-1.141l-4.336-9.027
					c-0.274-0.568-0.264-1.231,0.024-1.79c0.288-0.56,0.822-0.953,1.443-1.061c1.627-0.284,3.12-1.305,4.094-2.8
					c0.897-1.376,1.211-2.971,0.861-4.377c-0.347-1.402-1.373-2.677-2.816-3.501c-1.545-0.882-3.378-1.137-4.911-0.678
					c-3.13,0.935-5.372,4.6-4.894,8.004c0.154,1.1-0.611,2.116-1.711,2.271c-1.119,0.153-2.117-0.612-2.271-1.712
					c-0.751-5.35,2.714-10.921,7.727-12.417c2.599-0.776,5.538-0.398,8.054,1.04c2.393,1.366,4.115,3.562,4.726,6.026
					c0.617,2.485,0.109,5.234-1.396,7.541c-1.087,1.668-2.592,2.976-4.311,3.785l3.344,6.957c0.48,1.001,0.059,2.203-0.943,2.683
					C154.158,216.758,153.862,216.822,153.57,216.822z"/>
			</g>
		</g>
		<g>
			<g>
				<path style="fill:#E0E0E0;" d="M157.889,219.418c0.414,0.809,0.094,1.8-0.714,2.214c-0.809,0.414-1.8,0.095-2.214-0.714
					c-0.414-0.809-0.094-1.8,0.714-2.214C156.483,218.29,157.475,218.609,157.889,219.418z"/>
			</g>
		</g>
	</g>
	<g>
		<g>
			<g>
				<path style="fill:#F5F5F5;" d="M98.609,186.579c-0.523,0-1.025-0.294-1.267-0.797l-3.028-6.304
					c-0.191-0.396-0.185-0.859,0.016-1.25c0.201-0.391,0.574-0.666,1.008-0.741c1.136-0.198,2.179-0.911,2.859-1.956
					c0.626-0.961,0.846-2.075,0.602-3.057c-0.242-0.979-0.959-1.87-1.967-2.445c-1.079-0.616-2.359-0.794-3.43-0.474
					c-2.186,0.653-3.751,3.212-3.418,5.589c0.108,0.768-0.427,1.478-1.195,1.586c-0.782,0.107-1.478-0.428-1.586-1.195
					c-0.525-3.736,1.895-7.627,5.396-8.672c1.815-0.542,3.867-0.278,5.625,0.726c1.671,0.954,2.874,2.488,3.301,4.208
					c0.431,1.735,0.076,3.655-0.975,5.266c-0.759,1.165-1.81,2.078-3.011,2.643l2.335,4.859c0.336,0.699,0.041,1.538-0.658,1.874
					C99.02,186.535,98.813,186.579,98.609,186.579z"/>
			</g>
		</g>
		<g>
			<g>
				<path style="fill:#F5F5F5;" d="M101.626,188.392c0.289,0.565,0.066,1.257-0.499,1.546c-0.565,0.289-1.257,0.066-1.546-0.499
					s-0.066-1.257,0.499-1.546C100.644,187.604,101.336,187.828,101.626,188.392z"/>
			</g>
		</g>
	</g>
	<g>
		<g>
			<g>
				<path style="fill:#F5F5F5;" d="M348.131,189.979c0.224,0.473,0.173,1.052-0.178,1.486l-4.403,5.434
					c-0.276,0.342-0.698,0.535-1.137,0.52c-0.44-0.014-0.847-0.234-1.101-0.594c-0.665-0.942-1.756-1.58-2.991-1.748
					c-1.136-0.155-2.237,0.123-3.02,0.764c-0.781,0.638-1.28,1.667-1.369,2.824c-0.095,1.239,0.291,2.472,1.039,3.302
					c1.525,1.697,4.508,2.017,6.514,0.698c0.648-0.426,1.518-0.246,1.945,0.402c0.431,0.661,0.246,1.519-0.402,1.945
					c-3.153,2.073-7.704,1.549-10.146-1.168c-1.266-1.409-1.906-3.377-1.75-5.395c0.147-1.919,1.019-3.662,2.392-4.784
					c1.384-1.132,3.271-1.632,5.177-1.372c1.378,0.188,2.653,0.747,3.677,1.591l3.393-4.189c0.489-0.602,1.373-0.695,1.975-0.206
					C347.915,189.628,348.044,189.795,348.131,189.979z"/>
			</g>
		</g>
		<g>
			<g>
				<path style="fill:#F5F5F5;" d="M348.48,186.477c0.387-0.503,1.108-0.597,1.611-0.211c0.503,0.387,0.597,1.108,0.211,1.611
					c-0.387,0.503-1.108,0.597-1.611,0.211C348.187,187.702,348.093,186.98,348.48,186.477z"/>
			</g>
		</g>
	</g>
	<g>
		<g>
			<g>
				<path style="fill:#F5F5F5;" d="M333.47,59.534c0.224,0.473,0.173,1.052-0.178,1.486l-4.403,5.434
					c-0.276,0.342-0.698,0.535-1.137,0.52c-0.44-0.014-0.847-0.234-1.101-0.594c-0.665-0.942-1.755-1.58-2.991-1.748
					c-1.136-0.155-2.237,0.123-3.02,0.764c-0.781,0.638-1.28,1.667-1.369,2.824c-0.095,1.239,0.291,2.472,1.039,3.302
					c1.525,1.697,4.508,2.017,6.514,0.698c0.648-0.426,1.519-0.246,1.945,0.402c0.431,0.661,0.246,1.519-0.402,1.945
					c-3.153,2.073-7.704,1.549-10.147-1.168c-1.266-1.409-1.906-3.377-1.749-5.395c0.147-1.919,1.019-3.662,2.392-4.784
					c1.384-1.131,3.271-1.632,5.177-1.372c1.378,0.188,2.653,0.747,3.677,1.591l3.393-4.189c0.489-0.602,1.373-0.695,1.975-0.206
					C333.254,59.182,333.383,59.35,333.47,59.534z"/>
			</g>
		</g>
		<g>
			<g>
				<path style="fill:#F5F5F5;" d="M333.818,56.032c0.387-0.503,1.108-0.597,1.611-0.211c0.503,0.387,0.597,1.108,0.211,1.611
					c-0.387,0.503-1.108,0.597-1.611,0.211C333.526,57.256,333.431,56.535,333.818,56.032z"/>
			</g>
		</g>
	</g>
	<g>
		<g>
			<g>
				<path style="fill:#E0E0E0;" d="M222.451,79.586c0.68,0,1.332,0.382,1.647,1.035l3.935,8.192c0.248,0.515,0.24,1.117-0.021,1.625
					c-0.261,0.509-0.746,0.865-1.309,0.963c-1.477,0.258-2.831,1.184-3.715,2.541c-0.814,1.249-1.099,2.696-0.782,3.973
					c0.315,1.272,1.246,2.43,2.556,3.178c1.402,0.8,3.065,1.032,4.457,0.615c2.841-0.848,4.875-4.174,4.441-7.264
					c-0.14-0.998,0.555-1.921,1.553-2.061c1.016-0.139,1.921,0.556,2.061,1.553c0.682,4.855-2.463,9.911-7.012,11.269
					c-2.358,0.704-5.026,0.361-7.309-0.944c-2.172-1.24-3.734-3.233-4.289-5.468c-0.56-2.255-0.099-4.749,1.266-6.844
					c0.986-1.514,2.353-2.701,3.913-3.435l-3.035-6.314c-0.436-0.909-0.053-1.999,0.856-2.435
					C221.917,79.644,222.186,79.586,222.451,79.586z"/>
			</g>
		</g>
		<g>
			<g>
				<path style="fill:#E0E0E0;" d="M218.531,77.23c-0.376-0.734-0.086-1.633,0.648-2.009c0.734-0.376,1.633-0.086,2.009,0.648
					c0.376,0.734,0.086,1.633-0.648,2.009C219.807,78.254,218.907,77.964,218.531,77.23z"/>
			</g>
		</g>
	</g>
	<g>
		<g>
			<g>
				<path style="fill:#E0E0E0;" d="M358.111,241.385c0.68,0,1.332,0.382,1.647,1.036l3.935,8.192
					c0.248,0.515,0.24,1.117-0.021,1.625c-0.261,0.508-0.746,0.865-1.309,0.963c-1.477,0.258-2.831,1.184-3.715,2.541
					c-0.814,1.249-1.099,2.696-0.782,3.972c0.315,1.272,1.246,2.43,2.556,3.178c1.402,0.8,3.065,1.032,4.457,0.615
					c2.841-0.848,4.875-4.174,4.441-7.263c-0.14-0.998,0.555-1.921,1.553-2.061c1.016-0.139,1.921,0.555,2.061,1.553
					c0.682,4.855-2.463,9.911-7.012,11.269c-2.358,0.704-5.026,0.361-7.309-0.944c-2.172-1.24-3.734-3.233-4.289-5.468
					c-0.56-2.255-0.099-4.749,1.266-6.843c0.986-1.514,2.353-2.701,3.913-3.435l-3.034-6.314c-0.436-0.909-0.053-1.999,0.855-2.435
					C357.577,241.444,357.846,241.385,358.111,241.385z"/>
			</g>
		</g>
		<g>
			<g>
				<path style="fill:#E0E0E0;" d="M354.191,239.029c-0.376-0.734-0.086-1.633,0.648-2.009s1.634-0.086,2.009,0.648
					c0.376,0.734,0.086,1.633-0.648,2.009C355.467,240.053,354.567,239.763,354.191,239.029z"/>
			</g>
		</g>
	</g>
	<g>
		<g>
			<g>
				<path style="fill:#EBEBEB;" d="M385.407,294.322c0,0-7.688-5.911-18.901,12.687c-11.213,18.597-15.734,29.462-15.734,29.462
					s-2.888,3.858-5.477,1.017c-2.589-2.841-5.858-10.611-10.676-9.598c-4.996,1.051-6.999,6.4-6.638,14.497
					c0.361,8.097,0.5,25.865,0.506,27.471c0.006,1.577-1.057,3.824-3.131,2.172c-2.074-1.653-13.622-16.519-20.348-10.617
					c-6.726,5.902-2.015,28.293-1.547,30.75c0.468,2.458-0.077,3.454-1.266,3.969c-1.188,0.515-4.599-4.848-8.057-8.941
					c-3.458-4.094-8.184-8.234-11.78-4.504c-3.595,3.73-5.83,20.119,7.93,47.98l7.221,12.493l14.492,0.229
					c31.043-1.4,44.316-11.268,45.847-16.218c1.531-4.949-4.377-7.09-9.631-8.142c-5.254-1.052-11.597-1.45-11.72-2.739
					c-0.123-1.289,0.487-2.248,2.865-3.025c2.378-0.777,24.261-7.46,26.183-16.2c1.922-8.74-16.672-11.676-19.121-12.694
					c-2.449-1.018-0.994-3.034,0.39-3.79c1.41-0.77,17.038-9.226,24.302-12.819c7.265-3.593,10.983-7.929,9.491-12.812
					c-1.439-4.708-9.821-3.82-13.559-4.716c-3.738-0.896-1.754-5.288-1.754-5.288s7.332-9.204,18.205-28.002
					c10.874-18.798,1.743-22.73,1.743-22.73"/>
			</g>
		</g>
		<g>
			<g>
				<g>
					<path style="fill:#E0E0E0;" d="M375.337,310.96c0,0-0.064,0.141-0.208,0.405c-0.155,0.278-0.371,0.666-0.65,1.167
						c-0.59,1.037-1.443,2.539-2.537,4.465c-2.207,3.875-5.442,9.46-9.464,16.346c-8.04,13.774-19.306,32.708-31.815,53.579
						c-12.513,20.878-23.823,39.786-31.932,53.518c-4.04,6.858-7.313,12.414-9.586,16.272c-1.126,1.908-2.003,3.395-2.609,4.422
						c-0.295,0.491-0.524,0.871-0.689,1.144c-0.157,0.257-0.248,0.382-0.248,0.382s0.064-0.141,0.208-0.405
						c0.155-0.278,0.371-0.666,0.65-1.167c0.589-1.037,1.443-2.539,2.537-4.464c2.207-3.875,5.441-9.459,9.464-16.345
						c8.04-13.774,19.307-32.71,31.821-53.588c12.509-20.871,23.817-39.777,31.926-53.509c4.04-6.858,7.313-12.414,9.587-16.272
						c1.126-1.908,2.004-3.395,2.61-4.423c0.295-0.491,0.524-0.871,0.689-1.145C375.246,311.086,375.337,310.96,375.337,310.96z"/>
				</g>
			</g>
		</g>
		<g>
			<g>
				<g>
					<path style="fill:#E0E0E0;" d="M338.754,338.942c0.03-0.006,0.133,0.351,0.293,1.002c0.163,0.651,0.371,1.599,0.617,2.772
						c0.488,2.348,1.078,5.607,1.666,9.216c0.566,3.561,1.078,6.781,1.469,9.244c0.183,1.109,0.338,2.044,0.462,2.797
						c0.112,0.66,0.16,1.029,0.13,1.035c-0.03,0.007-0.136-0.349-0.301-1c-0.161-0.652-0.37-1.6-0.603-2.776
						c-0.465-2.353-1.013-5.619-1.599-9.227c-0.591-3.555-1.126-6.77-1.535-9.229c-0.189-1.109-0.349-2.044-0.477-2.796
						C338.769,339.318,338.724,338.949,338.754,338.942z"/>
				</g>
			</g>
		</g>
		<g>
			<g>
				<g>
					<path style="fill:#E0E0E0;" d="M344.696,365.358c-0.026-0.121,6.641-1.635,14.888-3.382c8.25-1.747,14.957-3.065,14.982-2.944
						c0.026,0.121-6.639,1.635-14.889,3.382C351.43,364.161,344.721,365.479,344.696,365.358z"/>
				</g>
			</g>
		</g>
		<g>
			<g>
				<g>
					<path style="fill:#E0E0E0;" d="M324.037,396.547c0.003-0.031,0.383-0.02,1.065,0.027c0.774,0.058,1.74,0.13,2.888,0.216
						c2.438,0.179,5.805,0.412,9.53,0.533c3.726,0.129,7.102,0.129,9.546,0.109c1.151-0.008,2.12-0.015,2.896-0.021
						c0.684-0.001,1.063,0.013,1.065,0.044c0.001,0.031-0.375,0.076-1.058,0.131c-0.683,0.054-1.672,0.115-2.895,0.163
						c-2.446,0.101-5.832,0.152-9.569,0.022c-3.736-0.121-7.11-0.405-9.544-0.665c-1.217-0.135-2.2-0.255-2.878-0.359
						C324.406,396.648,324.033,396.578,324.037,396.547z"/>
				</g>
			</g>
		</g>
		<g>
			<g>
				<g>
					<path style="fill:#E0E0E0;" d="M313.404,373.837c0.028-0.014,0.207,0.288,0.506,0.845c0.334,0.647,0.745,1.441,1.23,2.378
						c1.021,2.017,2.403,4.816,3.905,7.92c1.503,3.105,2.84,5.927,3.788,7.979c0.434,0.962,0.802,1.777,1.102,2.44
						c0.251,0.581,0.377,0.908,0.349,0.922c-0.028,0.013-0.206-0.288-0.506-0.845c-0.335-0.647-0.745-1.441-1.23-2.378
						c-1.021-2.017-2.404-4.816-3.906-7.922c-1.502-3.104-2.839-5.925-3.787-7.977c-0.434-0.961-0.802-1.777-1.102-2.44
						C313.502,374.178,313.376,373.851,313.404,373.837z"/>
				</g>
			</g>
		</g>
		<g>
			<g>
				<g>
					<path style="fill:#E0E0E0;" d="M291.668,399.055c0.028-0.014,0.253,0.375,0.637,1.088c0.414,0.793,0.947,1.815,1.588,3.042
						c1.323,2.577,3.123,6.151,5.086,10.111c1.964,3.961,3.719,7.558,4.969,10.171c0.589,1.253,1.079,2.296,1.46,3.105
						c0.336,0.738,0.508,1.152,0.48,1.166c-0.028,0.014-0.253-0.375-0.637-1.088c-0.413-0.792-0.947-1.815-1.588-3.042
						c-1.323-2.577-3.123-6.152-5.086-10.113c-1.963-3.96-3.718-7.556-4.968-10.169c-0.589-1.253-1.079-2.296-1.46-3.105
						C291.813,399.483,291.64,399.068,291.668,399.055z"/>
				</g>
			</g>
		</g>
		<g>
			<g>
				<g>
					<path style="fill:#E0E0E0;" d="M305.74,426.957c0.002-0.031,0.483-0.029,1.35,0c0.947,0.037,2.182,0.084,3.671,0.142
						c3.099,0.116,7.381,0.261,12.111,0.287c4.732,0.033,9.016-0.05,12.116-0.131c1.489-0.038,2.725-0.07,3.672-0.094
						c0.868-0.019,1.348-0.014,1.35,0.016c0.002,0.031-0.476,0.085-1.341,0.158c-0.865,0.072-2.119,0.157-3.669,0.236
						c-3.1,0.163-7.391,0.296-12.131,0.263c-4.738-0.026-9.026-0.221-12.124-0.419c-1.549-0.103-2.802-0.199-3.666-0.284
						C306.215,427.048,305.738,426.987,305.74,426.957z"/>
				</g>
			</g>
		</g>
	</g>
</g>
<g id="Background_Simple" style="display:none;">
	<path style="display:inline;fill:#F5F5F5;" d="M420.242,342.552c-32.936,50.673-95.794,80.974-155.653,81.513
		c-59.859,0.539-115.739-26.197-155.357-66.412c-28.282-28.707-49.446-65.445-52.221-106.259
		c-2.774-40.814,2.717-85.579,38.585-110.81c13.548-9.53,42.604-16.28,58.446-14.34c25.295,3.098,40.603,26.011,52.85,46.903
		c12.246,20.893,27.479,43.831,52.751,47.037c19.418,2.463,38.907-7.688,58.492-12.303c33.3-7.846,69.035,1.424,91.618,23.767
		c6.21,6.144,11.371,13.223,15.404,20.922c13.585,25.936,12.841,57.059-1.057,82.829L420.242,342.552z"/>
</g>
<g id="Floor">
	<g>
		<g>
			<path style="fill:#263238;" d="M432.65,459.362c0,0.144-81.079,0.26-181.071,0.26c-100.027,0-181.089-0.116-181.089-0.26
				c0-0.144,81.061-0.26,181.089-0.26C351.572,459.102,432.65,459.219,432.65,459.362z"/>
		</g>
	</g>
</g>
<g id="Character">
	<g>
		<g>
			<g>
				<g>
					<g>
						<g>
							<g>
								<path style="fill:#E8505B;" d="M344.877,397.549l-15.23-72.643c0,0-8.928-35.01-39.664-47.074l-2.121-0.652
									c-0.045-0.016-2.916-0.895-2.961-0.911c-1.235-0.481-6.282-2.082-7.608-2.495c-41.443-14.366-52.438-10.628-95.625,4.109
									c0,0-19.185,5.161-28.484,30.189c-9.298,25.027-27.099,64.169-27.099,64.169l43.085,15.214l8.258-12.268v45.294v38.634
									h51.128h67.371l-3.27-38.634l-0.57-47.587"/>
							</g>
						</g>
					</g>
				</g>
				<g>
					<g>
						<path style="fill:#FAFAFA;" d="M224.264,282.345c0.023,0.027-0.329,0.352-0.988,0.918c-0.326,0.289-0.735,0.628-1.243,0.98
							c-0.503,0.357-1.059,0.795-1.732,1.186c-1.305,0.85-2.954,1.713-4.851,2.52c-1.91,0.772-4.077,1.466-6.411,1.936
							c-2.34,0.444-4.609,0.617-6.67,0.621c-2.061-0.033-3.914-0.212-5.443-0.507c-0.771-0.109-1.45-0.306-2.051-0.447
							c-0.603-0.135-1.11-0.295-1.521-0.44c-0.824-0.276-1.273-0.444-1.261-0.479c0.031-0.104,1.848,0.533,4.893,1.002
							c1.52,0.246,3.351,0.384,5.383,0.391c2.032-0.031,4.264-0.215,6.57-0.652c2.3-0.463,4.437-1.133,6.33-1.87
							c1.88-0.771,3.524-1.589,4.839-2.389C222.753,283.535,224.196,282.26,224.264,282.345z"/>
					</g>
				</g>
				<g style="opacity:0.3;">
					<polygon points="177.428,407.131 187.144,418.349 196.691,418.349 196.691,430.562 295.444,453.398 294.639,443.886 
						201.732,411.985 186.163,411.985 178.656,405.988 					"/>
				</g>
				<g>
					<path style="fill:#FFBE9D;" d="M206.509,397.141l-8.237-1.525c0,0-19.524-21.355-23.185-21.66
						c-3.013-0.251-19.623-0.089-25.407-0.024c-1.103,0.013-1.987,0.91-1.987,2.013l0,0c0,1.081,0.854,1.97,1.935,2.012
						l19.623,0.761l0.093,1.58l-19.651,0.261c-2.001,0.154-3.283,3.323,3.122,3.894l16.436,0.584v1.022l-16.666,2.33
						c-0.842,0.118-3.058,0.548-3.078,1.398c0,0-1.008,2.089,3.74,2.682c1.63,0.204,16.097-0.277,16.097-0.277l-0.558,1.301
						l-14.978,3.231c-1.091,0.235-1.815,1.273-1.66,2.377l0,0c0.158,1.126,1.173,1.929,2.305,1.824l16.005-1.485l15.704,12.545
						h21.001L206.509,397.141z"/>
				</g>
				<g>
					<polyline style="fill:#E8505B;" points="344.877,397.549 296.949,406.975 292.087,372.894 					"/>
				</g>
				<g>
					<g>
						<path style="fill:#E8505B;" d="M290.567,398.85l-88.835-2.87l0.015,30.705l58.938,11.706l41.385,6.606
							c25.721,0,46.295-23.607,42.311-49.017l-0.109,0.029L290.567,398.85z"/>
					</g>
					<g>
						<g>
							<path style="fill:#263238;" d="M315.023,398.285c0,0.024-0.396,0.051-1.151,0.08c-0.817,0.023-1.918,0.055-3.302,0.094
								c-2.936,0.053-7.068,0.128-12.146,0.22c-10.256,0.149-24.428,0.323-40.082,0.174c-15.66-0.155-29.831-0.72-40.069-1.413
								c-5.119-0.342-9.258-0.673-12.113-0.96c-1.378-0.141-2.473-0.253-3.286-0.336c-0.751-0.085-1.144-0.141-1.141-0.165
								c0.002-0.024,0.399-0.015,1.154,0.025c0.815,0.051,1.914,0.119,3.296,0.206c2.86,0.204,7.002,0.459,12.12,0.738
								c10.238,0.566,24.396,1.053,40.047,1.208c15.645,0.148,29.813,0.053,40.07,0.03c5.079,0.001,9.212,0.001,12.148,0.002
								c1.385,0.015,2.486,0.028,3.303,0.037C314.626,398.241,315.023,398.261,315.023,398.285z"/>
						</g>
					</g>
				</g>
				<g>
					<g>
						<path style="fill:#263238;" d="M201.736,396.258c0.011,0,0.023,0.186,0.034,0.545c0.008,0.39,0.019,0.918,0.033,1.591
							c0.015,1.428,0.036,3.467,0.062,6.052c0.024,5.253,0.059,12.716,0.1,21.7l-0.172-0.213
							c10.032,2.152,22.057,4.814,35.002,7.531c17.75,3.754,33.904,6.719,45.65,8.534c5.874,0.901,10.637,1.563,13.932,1.998
							c1.622,0.214,2.894,0.381,3.795,0.5c0.411,0.06,0.736,0.107,0.986,0.143c0.222,0.035,0.335,0.057,0.334,0.066
							c-0.001,0.009-0.116,0.004-0.34-0.014c-0.251-0.023-0.578-0.053-0.992-0.092c-0.903-0.096-2.18-0.231-3.807-0.403
							c-3.304-0.374-8.078-0.98-13.962-1.836c-11.768-1.723-27.946-4.632-45.701-8.388c-12.949-2.718-24.968-5.411-34.987-7.615
							l-0.173-0.038l0.001-0.175c0.035-8.984,0.064-16.447,0.084-21.7c0.025-2.585,0.044-4.624,0.058-6.052
							c0.013-0.673,0.024-1.201,0.032-1.591C201.714,396.443,201.725,396.258,201.736,396.258z"/>
					</g>
				</g>
				<g>
					<g>
						<path style="fill:#263238;" d="M194.15,312.281c-0.036-0.004-0.011-0.538,0.064-1.498c0.061-0.961,0.158-2.351,0.195-4.07
							c0.098-3.434-0.057-8.2-0.931-13.371c-0.911-5.146-2.062-9.835-3.848-12.75c-0.874-1.464-1.889-2.429-2.654-2.99
							c-0.777-0.552-1.275-0.756-1.252-0.805c0.007-0.017,0.134,0.025,0.371,0.122c0.243,0.086,0.576,0.265,0.995,0.516
							c0.82,0.522,1.912,1.482,2.851,2.962c0.951,1.469,1.758,3.403,2.398,5.604c0.642,2.196,1.217,4.651,1.652,7.256
							c0.881,5.212,0.978,10.022,0.785,13.471c-0.085,1.727-0.238,3.118-0.361,4.076C194.278,311.76,194.186,312.286,194.15,312.281
							z"/>
					</g>
				</g>
				<g>
					<g>
						<path style="fill:#263238;" d="M291.843,285.292c0.144,0,0.26,20.411,0.26,45.584c0,25.182-0.117,45.589-0.26,45.589
							s-0.26-20.407-0.26-45.589C291.583,305.704,291.699,285.292,291.843,285.292z"/>
					</g>
				</g>
				<g>
					<g>
						<path style="fill:#263238;" d="M322.501,387.827c-0.001,0.098-1.512,0.05-3.914,0.347c-1.201,0.141-2.618,0.412-4.163,0.811
							c-1.539,0.424-3.204,0.989-4.886,1.74c-1.675,0.768-3.199,1.646-4.533,2.522c-1.32,0.898-2.459,1.783-3.357,2.592
							c-1.809,1.608-2.77,2.774-2.844,2.71c-0.028-0.023,0.194-0.328,0.621-0.862c0.419-0.541,1.091-1.272,1.974-2.12
							c0.878-0.855,2.01-1.783,3.336-2.718c1.341-0.913,2.884-1.819,4.588-2.6c1.711-0.764,3.41-1.325,4.981-1.73
							c1.577-0.379,3.022-0.617,4.243-0.712c1.22-0.104,2.212-0.126,2.895-0.083C322.126,387.756,322.502,387.791,322.501,387.827z"
							/>
					</g>
				</g>
				<g style="opacity:0.3;">
					<g>
						<path d="M194.982,392.081c14.972-8.939,24.315-23.745,33.448-38.599c9.133-14.854,17.635-30.449,30.298-42.436
							c5.815-5.505,12.615-10.149,14.764-17.863l-22.758,18.086l-63.401,72.913L194.982,392.081z"/>
					</g>
				</g>
				<g>
					<g>
						<path style="fill:#263238;" d="M153.88,352.955c0.017,0.198-3.577,0.06-7.672,1.455c-2.039,0.698-3.791,1.587-5.057,2.232
							c-1.264,0.654-2.047,1.064-2.087,0.998c-0.035-0.058,0.681-0.579,1.908-1.32c1.228-0.732,2.981-1.688,5.069-2.404
							c2.089-0.712,4.084-0.981,5.517-1.048C152.995,352.805,153.88,352.894,153.88,352.955z"/>
					</g>
				</g>
				<g>
					<g>
						<path style="fill:#263238;" d="M153.88,352.955c0.017,0.198-3.577,0.06-7.672,1.455c-2.039,0.698-3.791,1.587-5.057,2.232
							c-1.264,0.654-2.047,1.064-2.087,0.998c-0.035-0.058,0.681-0.579,1.908-1.32c1.228-0.732,2.981-1.688,5.069-2.404
							c2.089-0.712,4.084-0.981,5.517-1.048C152.995,352.805,153.88,352.894,153.88,352.955z"/>
					</g>
				</g>
				<g>
					<g>
						<path style="fill:#FAFAFA;" d="M291.462,385.637c-0.046,0.091-1.083-0.912-3.455-1.591c-2.346-0.729-6.036-0.716-10.222,0.641
							c-4.24,1.25-8.636,4.254-14.071,6.512c-2.713,1.095-5.794,1.946-9.037,1.728c-3.247-0.164-6.425-1.396-9.444-2.9
							c-3.034-1.513-5.855-3.218-8.726-4.552c-2.862-1.348-5.817-2.183-8.704-2.458c-5.786-0.549-11.049,0.789-14.976,2.708
							c-3.994,1.872-6.667,4.346-8.34,6.127c-0.405,0.456-0.767,0.865-1.086,1.225c-0.278,0.371-0.518,0.69-0.721,0.96
							c-0.183,0.237-0.332,0.429-0.453,0.586c-0.105,0.131-0.162,0.195-0.169,0.19c-0.008-0.005,0.035-0.079,0.125-0.22
							c0.11-0.165,0.245-0.367,0.411-0.617c0.193-0.28,0.42-0.611,0.685-0.995c0.311-0.372,0.663-0.794,1.057-1.265
							c1.639-1.836,4.305-4.383,8.33-6.322c1.982-1.011,4.302-1.83,6.864-2.367c2.56-0.535,5.382-0.767,8.32-0.488
							c2.937,0.265,5.973,1.113,8.871,2.472c2.906,1.343,5.738,3.05,8.744,4.548c2.993,1.491,6.1,2.692,9.243,2.857
							c3.137,0.218,6.143-0.595,8.827-1.664c5.373-2.2,9.825-5.191,14.14-6.418c4.253-1.331,8.02-1.287,10.39-0.484
							c1.193,0.368,2.048,0.842,2.597,1.193c0.245,0.175,0.444,0.317,0.605,0.432C291.401,385.576,291.467,385.63,291.462,385.637z"
							/>
					</g>
				</g>
				<g>
					<g>
						<path style="fill:#FAFAFA;" d="M334.898,348.655c-0.021,0.066-0.618-0.295-1.8-0.34c-1.173-0.07-2.888,0.346-4.7,1.439
							c-1.846,1.035-3.629,2.912-6.148,4.326c-1.251,0.694-2.77,1.208-4.375,1.1c-1.603-0.09-3.147-0.725-4.606-1.465
							c-1.468-0.741-2.829-1.567-4.239-2.128c-1.403-0.578-2.828-0.955-4.207-1.175c-1.379-0.227-2.714-0.276-3.956-0.216
							c-1.243,0.047-2.396,0.217-3.429,0.451c-2.072,0.458-3.663,1.148-4.721,1.686c-1.064,0.534-1.611,0.91-1.641,0.865
							c-0.01-0.015,0.12-0.118,0.378-0.3c0.258-0.182,0.638-0.456,1.167-0.743c1.039-0.599,2.633-1.354,4.733-1.867
							c1.047-0.262,2.22-0.456,3.49-0.523c1.268-0.08,2.635-0.047,4.051,0.173c1.415,0.212,2.882,0.589,4.328,1.178
							c1.458,0.574,2.835,1.407,4.28,2.135c1.438,0.73,2.913,1.331,4.402,1.42c1.487,0.107,2.902-0.356,4.117-1.013
							c2.443-1.335,4.271-3.194,6.193-4.223c1.88-1.08,3.683-1.459,4.897-1.322c0.608,0.051,1.063,0.2,1.357,0.317
							C334.759,348.562,334.906,348.639,334.898,348.655z"/>
					</g>
				</g>
				<g>
					<g>
						<path style="fill:#FAFAFA;" d="M290.918,334.968c-0.005,0.017-0.24-0.024-0.68-0.118c-0.221-0.043-0.49-0.116-0.813-0.17
							c-0.335-0.044-0.709-0.094-1.123-0.149c-1.691-0.193-4.191-0.09-7.127,0.729c-2.936,0.823-6.251,2.363-9.745,4.394
							c-3.491,2.024-7.24,4.511-11.606,6.307c-2.177,0.893-4.407,1.572-6.633,1.816c-2.22,0.262-4.415,0.099-6.399-0.439
							c-1.987-0.534-3.758-1.354-5.378-2.149c-1.62-0.802-3.101-1.589-4.484-2.237c-2.748-1.335-5.157-1.982-6.858-2.075
							c-0.849-0.015-1.511-0.016-1.956,0.06c-0.447,0.046-0.685,0.061-0.689,0.044c-0.004-0.018,0.228-0.068,0.674-0.148
							c0.445-0.11,1.113-0.143,1.98-0.158c1.733,0.03,4.214,0.64,7.003,1.943c1.404,0.631,2.9,1.402,4.519,2.183
							c1.62,0.775,3.375,1.568,5.312,2.074c1.932,0.51,4.054,0.658,6.215,0.396c2.166-0.244,4.35-0.91,6.496-1.791
							c4.306-1.771,8.04-4.227,11.565-6.242c3.525-2.018,6.896-3.544,9.887-4.333c2.993-0.786,5.543-0.833,7.248-0.575
							c0.417,0.073,0.793,0.139,1.129,0.198c0.324,0.07,0.591,0.161,0.81,0.22C290.698,334.876,290.923,334.951,290.918,334.968z"/>
					</g>
				</g>
				<g>
					<g>
						<path style="fill:#FAFAFA;" d="M321.887,304.203c0.015,0.032-0.365,0.254-1.07,0.621c-0.705,0.366-1.733,0.884-3.038,1.455
							c-1.305,0.568-2.894,1.194-4.739,1.641c-1.835,0.459-3.963,0.666-6.141,0.418c-2.178-0.229-4.193-0.691-6.04-0.941
							c-1.841-0.266-3.522-0.289-4.907-0.089c-2.809,0.378-4.177,1.663-4.223,1.558c-0.011-0.014,0.066-0.093,0.225-0.232
							c0.156-0.143,0.408-0.327,0.748-0.541c0.681-0.423,1.769-0.906,3.192-1.149c1.419-0.254,3.152-0.267,5.027-0.023
							c1.876,0.228,3.897,0.675,6.029,0.898c4.288,0.51,8.086-0.859,10.686-1.881c1.313-0.523,2.362-0.989,3.093-1.298
							C321.462,304.331,321.872,304.17,321.887,304.203z"/>
					</g>
				</g>
				<g>
					<g>
						<path style="fill:#FAFAFA;" d="M192.587,320.855c-0.024,0.066-0.587-0.38-1.771-0.426c-1.173-0.063-2.884,0.422-4.582,1.699
							c-0.867,0.611-1.765,1.37-2.836,2.069c-1.066,0.71-2.37,1.244-3.787,1.518c-2.858,0.548-6.081,0.016-9.169-1.094
							c-3.098-1.118-5.875-2.543-8.528-3.477c-1.322-0.477-2.609-0.836-3.833-1.048c-1.227-0.202-2.39-0.263-3.444-0.208
							c-2.115,0.106-3.767,0.699-4.791,1.282c-1.034,0.579-1.512,1.052-1.548,1.009c-0.012-0.013,0.102-0.133,0.334-0.351
							c0.228-0.22,0.596-0.517,1.112-0.833c1.016-0.651,2.7-1.318,4.87-1.474c1.082-0.08,2.275-0.039,3.536,0.15
							c1.26,0.198,2.579,0.551,3.924,1.022c2.701,0.923,5.492,2.339,8.544,3.439c3.035,1.092,6.165,1.613,8.907,1.113
							c1.363-0.253,2.602-0.741,3.643-1.411c1.049-0.662,1.962-1.404,2.858-2.007c1.763-1.268,3.587-1.732,4.805-1.598
							c0.612,0.049,1.067,0.218,1.35,0.364C192.465,320.735,192.594,320.845,192.587,320.855z"/>
					</g>
				</g>
				<g>
					<g>
						<path style="fill:#FAFAFA;" d="M248.922,397.447c0.013-0.013,0.122,0.082,0.321,0.276c0.207,0.187,0.47,0.501,0.788,0.924
							c0.608,0.855,1.356,2.25,1.635,4.143c0.273,1.863,0.057,4.282-1.329,6.44c-1.328,2.155-3.595,3.859-4.866,6.333
							c-0.611,1.239-0.764,2.611-0.498,3.893c0.246,1.284,0.768,2.467,1.298,3.571c1.093,2.185,2.103,4.303,2.065,6.263
							c-0.03,1.957-1.011,3.371-1.871,3.989c-0.435,0.32-0.836,0.458-1.105,0.529c-0.275,0.054-0.421,0.063-0.423,0.047
							c-0.021-0.059,0.604-0.089,1.403-0.736c0.775-0.627,1.647-2,1.628-3.827c-0.008-1.844-1-3.863-2.128-6.055
							c-0.548-1.112-1.098-2.323-1.368-3.686c-0.293-1.355-0.129-2.889,0.531-4.216c0.661-1.324,1.609-2.397,2.504-3.397
							c0.898-1.002,1.774-1.949,2.427-2.967c1.335-2.027,1.586-4.328,1.368-6.133c-0.223-1.83-0.894-3.207-1.438-4.077
							C249.299,397.892,248.882,397.484,248.922,397.447z"/>
					</g>
				</g>
				<g>
					<g>
						<path style="fill:#FAFAFA;" d="M290.84,441.349c-0.012,0.013-0.14-0.098-0.375-0.326c-0.223-0.236-0.526-0.625-0.773-1.202
							c-0.532-1.142-0.597-3.091,0.253-5.163c0.413-1.032,1.074-2.101,1.943-3.067c0.85-0.988,1.858-1.938,2.87-2.965
							c1.01-1.024,2.033-2.144,2.779-3.492c0.749-1.344,1.172-2.915,1.338-4.55c0.331-3.293-0.261-6.455-0.428-9.36
							c-0.21-2.897,0.041-5.615,0.969-7.661c0.889-2.054,2.224-3.391,3.288-4.025c0.53-0.326,0.979-0.508,1.289-0.609
							c0.313-0.091,0.478-0.13,0.483-0.113c0.022,0.057-0.66,0.206-1.661,0.891c-1,0.667-2.243,1.993-3.061,3.999
							c-0.852,1.994-1.062,4.619-0.829,7.485c0.188,2.866,0.806,6.049,0.468,9.446c-0.171,1.686-0.614,3.332-1.41,4.745
							c-0.793,1.415-1.857,2.557-2.885,3.582c-2.072,2.025-4.015,3.803-4.814,5.836c-0.861,1.98-0.854,3.835-0.404,4.946
							C290.305,440.879,290.9,441.304,290.84,441.349z"/>
					</g>
				</g>
				<g>
					<g>
						<path style="fill:#FAFAFA;" d="M295.978,454.615c0,0-0.346,0.302-1.114,0.704c-0.76,0.408-1.981,0.882-3.629,1.036
							c-1.641,0.171-3.691-0.006-5.937-0.667c-2.261-0.634-4.659-1.85-7.187-3.322c-2.541-1.443-5.27-3.169-8.509-4.257
							c-3.234-1.087-6.982-1.182-10.732-0.366c-3.768,0.784-7.534,2.333-11.415,3.948c-3.884,1.604-7.923,3.368-12.351,4.264
							c-2.206,0.456-4.463,0.597-6.657,0.374c-2.2-0.207-4.307-0.895-6.212-1.84c-3.828-1.913-6.88-4.683-9.999-6.937
							c-1.558-1.132-3.119-2.185-4.755-2.974c-0.41-0.195-0.816-0.389-1.219-0.582c-0.41-0.177-0.834-0.311-1.246-0.467
							c-0.817-0.335-1.666-0.522-2.489-0.743c-3.321-0.811-6.564-0.789-9.433-0.382c-2.875,0.424-5.411,1.236-7.494,2.236
							c-0.53,0.232-1.006,0.526-1.485,0.77c-0.482,0.24-0.921,0.511-1.331,0.792c-0.413,0.274-0.817,0.523-1.187,0.782
							c-0.355,0.279-0.693,0.544-1.014,0.797c-0.662,0.48-1.158,1.011-1.622,1.433c-0.473,0.416-0.822,0.817-1.103,1.142
							c-0.273,0.303-0.49,0.543-0.656,0.727c-0.15,0.162-0.231,0.243-0.238,0.237c-0.007-0.005,0.059-0.097,0.196-0.27
							c0.157-0.193,0.361-0.445,0.618-0.763c0.27-0.338,0.609-0.752,1.073-1.183c0.456-0.437,0.946-0.984,1.603-1.48
							c0.319-0.26,0.656-0.534,1.009-0.822c0.369-0.268,0.773-0.526,1.186-0.809c0.409-0.289,0.85-0.569,1.333-0.819
							c0.48-0.254,0.959-0.557,1.491-0.798c2.096-1.037,4.654-1.884,7.566-2.338c2.906-0.436,6.199-0.481,9.585,0.326
							c0.84,0.22,1.706,0.407,2.541,0.744c0.421,0.157,0.854,0.292,1.273,0.471c0.413,0.194,0.829,0.391,1.247,0.588
							c1.673,0.798,3.259,1.861,4.833,2.996c3.147,2.262,6.198,5.007,9.942,6.867c1.864,0.92,3.901,1.583,6.041,1.782
							c2.133,0.215,4.334,0.08,6.501-0.369c4.35-0.879,8.369-2.625,12.256-4.224c3.886-1.608,7.683-3.162,11.513-3.946
							c3.81-0.818,7.662-0.707,10.966,0.426c3.302,1.13,6.033,2.888,8.558,4.348c2.514,1.49,4.863,2.709,7.086,3.361
							c2.208,0.679,4.221,0.881,5.836,0.744c1.622-0.121,2.834-0.555,3.6-0.929C295.591,454.857,295.959,454.585,295.978,454.615z"
							/>
					</g>
				</g>
			</g>
			<g>
				<g>
					<g>
						<g>
							<path style="fill:#FFBE9D;" d="M240.342,287.808L240.342,287.808c11.158,0.551,20.758-7.818,21.737-18.947
								c0.581-6.602,1.039-12.239,1.039-12.239s17.039-0.43,19.411-17.102c2.373-16.672,4.452-55.393,4.452-55.393l0,0
								c-18.253-10.815-40.929-10.904-59.267-0.234l-2.722,1.584l-4.387,80.432C219.978,277.417,228.831,287.24,240.342,287.808z"/>
						</g>
					</g>
				</g>
				<g>
					<g>
						<g>
							<g>
								<path style="fill:#263238;" d="M265.475,227.996c0.008-0.182,1.467-0.285,3.821-0.306c0.61,0.013,1.1-0.062,1.186-0.38
									c0.155-0.35,0.006-1.022-0.207-1.779c-0.395-1.597-0.794-3.215-1.213-4.909c-1.649-6.984-2.698-12.712-2.343-12.796
									c0.354-0.084,1.978,5.509,3.627,12.493c0.384,1.702,0.75,3.327,1.112,4.933c0.131,0.724,0.444,1.591,0.005,2.543
									c-0.231,0.476-0.751,0.774-1.161,0.826c-0.414,0.069-0.754,0.025-1.044,0.001
									C266.913,228.404,265.468,228.178,265.475,227.996z"/>
							</g>
						</g>
					</g>
				</g>
				<g>
					<g>
						<g>
							<path style="fill:#EB996E;" d="M263.177,256.385c0,0-10.665-0.51-20.968-9.011c0,0,3.587,12.685,20.445,13.343
								L263.177,256.385z"/>
						</g>
					</g>
				</g>
				<g>
					<g>
						<path style="fill:#263238;" d="M286.78,188.372c0,0-10.504,4.388-23.451-2.992c-8.496-4.843-18.563-7.535-20.905-5.902
							c-2.342,1.633-3.313,10.609-12.112,12.759c0,0-0.353,17.209-7.168,16.219c-6.814-0.991-1.067-27.357-1.067-27.357
							l17.205-7.258l18.473-2.445l17.093,3.379l13.128,4.385L286.78,188.372z"/>
					</g>
				</g>
				<g>
					<g>
						<g>
							<g>
								<path style="fill:#FFBE9D;" d="M224.806,203.041c-0.269-0.16-11.034-4.883-12.15,6.582
									c-1.116,11.464,10.624,10.22,10.675,9.893C223.384,219.189,224.806,203.041,224.806,203.041z"/>
							</g>
						</g>
					</g>
					<g>
						<g>
							<g>
								<g>
									<path style="fill:#EB996E;" d="M220.252,214.831c-0.047-0.042-0.213,0.12-0.566,0.242c-0.344,0.118-0.92,0.168-1.496-0.114
										c-1.168-0.563-2.001-2.585-1.855-4.656c0.072-1.047,0.387-2.019,0.837-2.805c0.432-0.805,1.031-1.337,1.651-1.387
										c0.62-0.081,1.017,0.326,1.125,0.662c0.122,0.335,0.027,0.557,0.086,0.582c0.029,0.032,0.265-0.168,0.219-0.65
										c-0.025-0.232-0.133-0.516-0.381-0.762c-0.254-0.25-0.647-0.404-1.076-0.399c-0.89-0.025-1.765,0.711-2.259,1.574
										c-0.543,0.863-0.922,1.953-1.003,3.128c-0.152,2.317,0.82,4.593,2.431,5.234c0.786,0.288,1.483,0.111,1.856-0.126
										C220.205,215.107,220.29,214.856,220.252,214.831z"/>
								</g>
							</g>
						</g>
					</g>
				</g>
				<g>
					<path style="fill:#263238;" d="M237.925,181.319c-2.343,2.496-4.722,5.022-7.63,6.829c-2.908,1.807-6.456,2.843-9.792,2.074
						c-3.336-0.769-6.285-3.657-6.421-7.078c-0.136-3.421,3.207-6.758,6.551-6.025c-2.27,0.041-4.167-2.53-3.46-4.687
						c0.708-2.157,3.76-3.103,5.564-1.725c-2.905-0.544-3.231-5.155-0.917-6.992c2.314-1.837,5.706-1.436,8.444-0.325
						c2.739,1.11,5.254,2.831,8.143,3.453c4.531,0.975,9.181-0.912,13.188-3.24c4.007-2.328,7.816-5.176,12.283-6.41
						c5.483-1.515,11.407-0.408,16.652,1.793c4.354,1.827,8.477,4.473,11.309,8.251c2.832,3.778,4.23,8.8,2.97,13.351
						c-1.261,4.551-5.495,8.329-10.216,8.347c0,0-10.615,1.069-19.252-5.342c-8.637-6.412-26.849-5.564-26.849-5.564
						L237.925,181.319z"/>
				</g>
				<g>
					<g>
						<path style="fill:#455A64;" d="M221.95,167.972c-0.022,0.036,0.205,0.217,0.661,0.53c0.45,0.324,1.147,0.743,2.062,1.261
							c1.835,1.016,4.623,2.296,8.266,3.287c3.635,0.982,8.153,1.61,13.152,1.251c5.023-0.331,10.292-1.949,15.778-3.291
							c5.469-1.347,10.906-2.017,15.597-0.862c4.687,1.083,8.387,3.924,10.014,7.135c1.65,3.244,1.453,6.411,0.865,8.32
							c-0.597,1.961-1.431,2.829-1.323,2.902c0.032,0.027,0.237-0.178,0.602-0.604c0.322-0.451,0.81-1.135,1.173-2.146
							c0.758-1.962,1.128-5.317-0.541-8.858c-1.658-3.531-5.585-6.643-10.519-7.846c-4.961-1.284-10.621-0.595-16.155,0.767
							c-5.556,1.362-10.724,2.979-15.582,3.357c-4.851,0.41-9.265-0.111-12.85-0.965
							C225.941,170.456,222.064,167.728,221.95,167.972z"/>
					</g>
				</g>
				<g>
					<g>
						<path style="fill:#455A64;" d="M216.804,185.687c-0.129,0.065,0.245,1.187,1.482,2.608c1.21,1.409,3.41,3.045,6.271,3.665
							c2.862,0.617,5.541,0.036,7.226-0.748c1.714-0.783,2.517-1.651,2.427-1.764c-0.108-0.158-1.067,0.429-2.736,0.953
							c-1.651,0.531-4.089,0.912-6.657,0.359c-2.566-0.557-4.629-1.912-5.914-3.077
							C217.599,186.519,216.968,185.588,216.804,185.687z"/>
					</g>
				</g>
				<g>
					<g>
						<path style="fill:#455A64;" d="M220.378,180.022c-0.292,0.137,0.587,2.22,2.808,3.744c2.21,1.541,4.469,1.629,4.494,1.307
							c0.068-0.349-1.843-0.941-3.797-2.315C221.909,181.415,220.681,179.836,220.378,180.022z"/>
					</g>
				</g>
				<g>
					<g>
						<path style="fill:#263238;" d="M292.412,196.015c0.152,0.037,0.476-0.528,0.561-1.555c0.091-1.012-0.135-2.5-1.014-3.852
							c-0.88-1.351-2.15-2.161-3.112-2.488c-0.974-0.338-1.621-0.271-1.649-0.117c-0.099,0.331,2.258,0.987,3.732,3.274
							C292.424,193.55,292.069,195.971,292.412,196.015z"/>
					</g>
				</g>
				<g>
					<g>
						<path style="fill:#455A64;" d="M298.353,179.578c-0.338-0.142-1.603,2.895-4.6,5.397c-2.951,2.557-6.151,3.318-6.065,3.675
							c-0.014,0.319,3.609,0.055,6.86-2.741C297.827,183.15,298.67,179.615,298.353,179.578z"/>
					</g>
				</g>
				<g>
					<g>
						<g>
							<path style="fill:#263238;" d="M280.973,209.533c-0.129,1.357-1.384,2.367-2.803,2.259c-1.417-0.108-2.465-1.293-2.336-2.65
								c0.129-1.357,1.384-2.369,2.801-2.261C280.054,206.989,281.102,208.176,280.973,209.533z"/>
						</g>
					</g>
					<g>
						<g>
							<g>
								<path style="fill:#263238;" d="M283.004,209.307c-0.361,0.292-2.112-1.395-4.865-1.747
									c-2.745-0.391-4.951,0.761-5.205,0.385c-0.127-0.168,0.274-0.728,1.238-1.254c0.949-0.525,2.507-0.952,4.221-0.721
									c1.714,0.233,3.073,1.053,3.818,1.807C282.972,208.538,283.18,209.178,283.004,209.307z"/>
							</g>
						</g>
					</g>
				</g>
				<g>
					<g>
						<g>
							<path style="fill:#263238;" d="M255.924,206.054c-0.128,1.357-1.384,2.367-2.803,2.259c-1.417-0.108-2.464-1.293-2.336-2.651
								c0.129-1.357,1.384-2.369,2.801-2.261C255.006,203.51,256.053,204.697,255.924,206.054z"/>
						</g>
					</g>
					<g>
						<g>
							<g>
								<path style="fill:#263238;" d="M257.716,205.982c-0.361,0.292-2.114-1.395-4.866-1.747
									c-2.745-0.391-4.951,0.762-5.205,0.385c-0.127-0.168,0.272-0.728,1.238-1.254c0.949-0.525,2.507-0.952,4.22-0.721
									c1.714,0.233,3.073,1.053,3.818,1.807C257.681,205.212,257.891,205.853,257.716,205.982z"/>
							</g>
						</g>
					</g>
				</g>
				<g>
					<g>
						<path style="fill:#263238;" d="M256.655,198.41c-0.543,0.484-2.606-1.02-5.393-1.281c-2.78-0.331-5.113,0.706-5.542,0.118
							c-0.2-0.281,0.171-0.992,1.195-1.671c1.004-0.675,2.708-1.24,4.622-1.036c1.914,0.203,3.461,1.114,4.3,1.985
							C256.697,197.404,256.91,198.178,256.655,198.41z"/>
					</g>
				</g>
				<g>
					<g>
						<path style="fill:#263238;" d="M282.827,202.974c0.12,0.326-0.354,0.873-1.356,1.307c-0.992,0.435-2.521,0.693-4.167,0.436
							c-1.647-0.26-3.023-0.975-3.833-1.693c-0.821-0.721-1.104-1.387-0.889-1.66c0.477-0.565,2.525,0.408,5.127,0.781
							C280.298,202.588,282.546,202.29,282.827,202.974z"/>
					</g>
				</g>
				<g>
					<g>
						<path style="fill:#263238;" d="M263.365,232.576c0.287,0.018,0.489,0.535,0.452,1.157c-0.038,0.622-0.301,1.111-0.588,1.094
							c-0.287-0.017-0.489-0.535-0.451-1.157C262.815,233.048,263.079,232.559,263.365,232.576z"/>
					</g>
				</g>
				<g>
					<g>
						<path style="fill:#455A64;" d="M222.767,223.876c0.027,0.009-0.015,0.268-0.25,0.673c-0.231,0.4-0.694,0.938-1.453,1.323
							c-0.741,0.386-1.84,0.581-2.918,0.173c-1.063-0.384-2.074-1.296-2.506-2.553c-0.421-1.261-0.188-2.583,0.354-3.56
							c0.542-1,1.403-1.63,2.164-1.961c0.771-0.337,1.455-0.41,1.914-0.403c0.463,0.008,0.71,0.081,0.706,0.111
							c0.01,0.102-1.048-0.072-2.462,0.625c-0.689,0.349-1.438,0.949-1.899,1.854c-0.465,0.889-0.652,2.071-0.284,3.167
							c0.373,1.09,1.256,1.912,2.183,2.271c0.935,0.381,1.894,0.252,2.592-0.057C222.35,224.89,222.688,223.807,222.767,223.876z"/>
					</g>
				</g>
			</g>
		</g>
		<g>
			<g>
				<g>
					<path style="fill:#FFBE9D;" d="M233.834,292.362c0,0,5.579-7.882,9.085-12.309c4.247-5.365,6.78-9.989,6.78-12.494
						c0-2.505,0-13.279,0-13.279s5.288-1.253,6.043,4.76c0.756,6.013,0,7.516,0,7.516s22.205-14.954,23.71-13.869
						c2.645,1.906-2.372,5.899-2.372,5.899l-13.533,12.229l7.706-2.439c1.874-0.593,3.88,0.415,4.511,2.268l0,0
						c0.519,1.523-0.043,3.203-1.376,4.113l-4.561,3.952l2.295-0.922c1.7-0.683,3.641,0.046,4.463,1.677l0,0
						c0.66,1.309,0.431,2.888-0.573,3.959l-4.156,4.43l1.947-1.036c1.255-0.668,2.817-0.173,3.452,1.095l0,0
						c0.532,1.062,0.245,2.35-0.689,3.089l-24.855,19.652L233.834,292.362z"/>
				</g>
				<g>
					<g>
						<path style="fill:#EB996E;" d="M251.713,310.652c0,0-0.105-0.091-0.31-0.291c-0.218-0.217-0.519-0.516-0.91-0.905
							c-0.817-0.823-2.002-2.015-3.531-3.554c-3.103-3.144-7.601-7.703-13.246-13.423l-0.097-0.098l0.08-0.113
							c1.626-2.302,3.394-4.771,5.312-7.379c0.96-1.303,1.956-2.641,3.003-4.001c1.058-1.356,2.141-2.73,3.165-4.213
							c1.026-1.476,2.021-3.031,2.875-4.701c0.826-1.68,1.611-3.454,1.418-5.429c-0.005-3.941-0.009-8.037-0.014-12.264l0-0.199
							l0.185-0.035c1.349-0.254,2.797-0.097,4.014,0.661c0.6,0.387,1.072,0.936,1.456,1.533c0.335,0.624,0.593,1.289,0.729,1.979
							c0.27,1.384,0.364,2.744,0.451,4.15c0.036,0.7,0.049,1.406,0.019,2.118c-0.047,0.723-0.062,1.403-0.343,2.183l-0.368-0.323
							c3.428-2.299,6.983-4.626,10.655-6.948c1.837-1.159,3.703-2.316,5.61-3.446c1.916-1.117,3.835-2.261,5.927-3.176
							c0.277-0.114,0.556-0.225,0.856-0.309c0.151-0.041,0.305-0.079,0.484-0.092c0.086-0.009,0.191-0.003,0.304,0.021
							c0.161,0.055,0.22,0.124,0.273,0.173c0.543,0.363,0.845,1.116,0.753,1.757c-0.19,1.299-1.01,2.245-1.782,3.113
							c-0.806,0.868-1.727,1.578-2.554,2.358c-0.849,0.767-1.693,1.53-2.534,2.289c-3.363,3.036-6.66,6.013-9.874,8.915
							l-0.246-0.428c1.519-0.48,3.023-0.955,4.512-1.425c0.744-0.235,1.485-0.469,2.222-0.702c0.373-0.115,0.725-0.236,1.113-0.344
							c0.394-0.114,0.807-0.158,1.214-0.135c1.649,0.051,3.134,1.277,3.53,2.832c0.44,1.551-0.236,3.29-1.54,4.153l0.021-0.017
							c-1.551,1.341-3.073,2.656-4.565,3.946l-0.237-0.388c0.751-0.301,1.496-0.599,2.235-0.895c0.774-0.32,1.661-0.382,2.461-0.158
							c1.623,0.429,2.792,2.015,2.738,3.628c-0.009,0.799-0.284,1.583-0.76,2.204c-0.502,0.598-1.005,1.085-1.5,1.625
							c-0.991,1.052-1.961,2.083-2.91,3.091l-0.242-0.317c0.705-0.37,1.401-0.737,2.089-1.099c0.758-0.359,1.664-0.324,2.385,0.051
							c0.732,0.363,1.251,1.075,1.415,1.847c0.164,0.777-0.036,1.604-0.513,2.207c-0.237,0.311-0.551,0.532-0.82,0.746
							c-0.279,0.219-0.555,0.437-0.83,0.653c-0.549,0.432-1.09,0.857-1.623,1.276c-1.066,0.837-2.099,1.649-3.099,2.434
							c-3.991,3.127-7.442,5.83-10.274,8.049c-2.808,2.19-5.001,3.901-6.509,5.077c-0.732,0.565-1.297,1.002-1.694,1.309
							C251.908,310.517,251.713,310.652,251.713,310.652s0.197-0.175,0.579-0.487c0.397-0.321,0.961-0.777,1.692-1.368
							c1.498-1.201,3.677-2.947,6.466-5.182c2.801-2.235,6.214-4.959,10.161-8.109c0.988-0.786,2.009-1.599,3.062-2.437
							c0.527-0.419,1.062-0.844,1.604-1.276c0.271-0.216,0.545-0.433,0.82-0.652c0.281-0.225,0.554-0.421,0.752-0.686
							c0.41-0.523,0.579-1.237,0.435-1.904c-0.145-0.664-0.592-1.274-1.222-1.582c-0.621-0.319-1.397-0.346-2.043-0.036
							c-0.68,0.361-1.369,0.727-2.065,1.097l-1.069,0.568l0.827-0.885c0.946-1.012,1.912-2.046,2.899-3.102
							c0.48-0.527,1.022-1.064,1.466-1.597c0.42-0.551,0.66-1.244,0.666-1.949c0.043-1.424-0.992-2.817-2.423-3.192
							c-0.709-0.193-1.476-0.14-2.172,0.148c-0.738,0.297-1.482,0.598-2.232,0.9l-1.276,0.515l1.04-0.903
							c1.49-1.294,3.008-2.612,4.556-3.957l0.011-0.01l0.01-0.007c1.141-0.759,1.728-2.281,1.341-3.634
							c-0.35-1.357-1.647-2.425-3.087-2.467c-0.713-0.065-1.401,0.235-2.154,0.46c-0.736,0.234-1.477,0.469-2.221,0.705
							c-1.488,0.472-2.992,0.949-4.51,1.431l-1.107,0.351l0.862-0.779c3.215-2.908,6.511-5.89,9.875-8.932
							c0.841-0.76,1.686-1.525,2.535-2.292c0.838-0.79,1.744-1.49,2.51-2.318c0.747-0.822,1.504-1.77,1.644-2.809
							c0.057-0.506-0.124-0.999-0.564-1.303c-0.06-0.15-0.322-0.066-0.591-0.005c-0.264,0.074-0.531,0.179-0.796,0.288
							c-2.03,0.886-3.959,2.033-5.863,3.143c-1.901,1.126-3.764,2.28-5.599,3.436c-3.667,2.316-7.223,4.639-10.648,6.93
							l-0.636,0.425l0.268-0.749c0.199-0.555,0.26-1.307,0.292-1.978c0.03-0.69,0.019-1.383-0.016-2.072
							c-0.081-1.368-0.181-2.77-0.434-4.07c-0.127-0.652-0.367-1.264-0.669-1.834c-0.348-0.538-0.765-1.028-1.298-1.373
							c-1.065-0.676-2.431-0.829-3.638-0.603l0.185-0.234c-0.005,4.228-0.01,8.323-0.014,12.264c-0.006,0.497,0.015,0.97-0.03,1.493
							c-0.065,0.503-0.172,0.993-0.325,1.461c-0.296,0.94-0.697,1.822-1.127,2.672c-0.873,1.695-1.882,3.259-2.921,4.743
							c-1.033,1.486-2.137,2.875-3.192,4.217c-1.05,1.352-2.05,2.684-3.015,3.982c-1.927,2.596-3.708,5.056-5.345,7.346
							l-0.017-0.211c5.563,5.745,9.996,10.324,13.054,13.482c1.514,1.575,2.688,2.794,3.497,3.636
							c0.388,0.408,0.687,0.722,0.904,0.95C251.61,310.53,251.713,310.652,251.713,310.652z"/>
					</g>
				</g>
			</g>
			<g>
				<path style="fill:#E8505B;" d="M251.713,310.652l-68.136,89.957c-10.342,13.654-28.982,18.65-44.467,11.238
					c-11.321-5.419-19.623-16.797-12.676-40.221l65.27-44.659l39.673-38.289L251.713,310.652z"/>
			</g>
			<g>
				<g>
					<path style="fill:#263238;" d="M139.109,411.847c0,0,0.254,0.119,0.735,0.374c0.493,0.261,1.204,0.638,2.132,1.129
						c1.948,0.807,4.884,2.016,8.907,2.388c2.001,0.154,4.249,0.226,6.674-0.121c1.221-0.101,2.463-0.406,3.764-0.664
						c0.646-0.147,1.291-0.359,1.955-0.54c0.668-0.172,1.331-0.4,1.998-0.656c2.688-0.955,5.472-2.262,8.189-4.022
						c2.725-1.744,5.404-3.922,7.681-6.711c4.651-5.502,9.457-11.783,14.651-18.486c5.183-6.715,10.656-13.941,16.415-21.543
						c11.497-15.223,24.066-32.012,37.201-49.679c0.7-0.942,1.398-1.882,2.093-2.818l0.018,0.332
						c-6.971-7.536-13.776-14.892-20.332-21.978l0.349,0.023c-13.89,11.465-26.744,22.41-38.399,32.158
						c-11.643,9.761-22.082,18.329-30.905,25.313c-8.82,6.988-15.994,12.425-20.989,16.076c-2.483,1.846-4.446,3.21-5.757,4.156
						c-0.651,0.461-1.15,0.814-1.499,1.06c-0.339,0.236-0.518,0.348-0.518,0.348s0.162-0.136,0.491-0.385
						c0.343-0.255,0.833-0.62,1.473-1.097c1.293-0.971,3.239-2.358,5.705-4.225c4.961-3.694,12.101-9.17,20.89-16.191
						c8.792-7.017,19.204-15.611,30.825-25.395c11.633-9.77,24.474-20.733,38.36-32.211l0.185-0.153l0.164,0.177
						c6.558,7.084,13.366,14.437,20.34,21.971l0.147,0.159l-0.129,0.173c-0.695,0.936-1.393,1.876-2.093,2.818
						c-13.135,17.668-25.717,34.45-37.236,49.658c-5.771,7.596-11.257,14.813-16.456,21.518
						c-5.212,6.695-10.031,12.959-14.714,18.463c-2.307,2.806-5.029,5.003-7.781,6.749c-2.747,1.765-5.558,3.069-8.27,4.018
						c-0.673,0.255-1.342,0.481-2.016,0.651c-0.67,0.18-1.32,0.389-1.972,0.534c-1.313,0.253-2.565,0.552-3.797,0.647
						c-2.445,0.335-4.71,0.248-6.724,0.077c-4.048-0.406-6.99-1.654-8.931-2.494c-0.938-0.501-1.638-0.913-2.114-1.178
						C139.344,411.996,139.109,411.847,139.109,411.847z"/>
				</g>
			</g>
			<g>
				<g>
					<path style="fill:#FAFAFA;" d="M190.77,388.413c-0.041,0.058-0.768-0.642-2.382-1.366c-1.598-0.741-4.18-1.255-7.326-0.924
						c-1.571,0.153-3.274,0.509-5.052,1.054c-1.778,0.538-3.629,1.298-5.586,2.07c-1.958,0.774-4.027,1.587-6.259,2.187
						c-2.226,0.594-4.648,0.949-7.111,0.693c-2.461-0.255-4.761-1.026-6.883-1.908c-2.129-0.883-4.104-1.886-6.015-2.753
						c-3.79-1.765-7.476-2.911-10.637-2.732c-3.16,0.142-5.555,1.357-6.876,2.497c-1.351,1.147-1.757,2.093-1.817,2.048
						c-0.016-0.009,0.1-0.226,0.337-0.635c0.267-0.386,0.667-0.969,1.346-1.565c1.311-1.215,3.747-2.52,6.99-2.712
						c3.253-0.232,7.03,0.911,10.854,2.663c1.929,0.861,3.904,1.853,6.012,2.719c2.103,0.866,4.357,1.615,6.742,1.862
						c2.383,0.248,4.736-0.091,6.927-0.668c2.196-0.583,4.254-1.379,6.215-2.141c1.962-0.76,3.825-1.508,5.638-2.037
						c1.807-0.534,3.54-0.874,5.141-1.007c3.205-0.291,5.843,0.293,7.444,1.106C190.091,387.659,190.77,388.413,190.77,388.413z"/>
				</g>
			</g>
			<g>
				<g>
					<path style="fill:#FAFAFA;" d="M214.849,358.249c-0.075-0.018,0.404-0.605,0.26-1.783c-0.151-1.128-1.074-2.802-3.007-3.659
						c-0.953-0.445-2.082-0.729-3.31-1.009c-1.223-0.279-2.571-0.608-3.87-1.241c-2.625-1.22-5.045-3.327-7.29-5.712
						c-2.248-2.393-4.252-4.78-6.388-6.614c-2.113-1.855-4.361-3.101-6.407-3.66c-2.038-0.583-3.796-0.559-4.956-0.338
						c-1.169,0.211-1.777,0.498-1.796,0.447c-0.007-0.016,0.14-0.092,0.431-0.223c0.29-0.128,0.733-0.296,1.326-0.423
						c1.174-0.288,2.986-0.372,5.093,0.182c2.112,0.525,4.455,1.782,6.621,3.65c2.192,1.848,4.222,4.247,6.454,6.62
						c2.227,2.366,4.587,4.433,7.118,5.636c2.501,1.24,5.161,1.335,7.132,2.352c2.03,0.957,2.953,2.762,3.05,3.968
						c0.048,0.618-0.074,1.097-0.21,1.388C214.965,358.123,214.859,358.256,214.849,358.249z"/>
				</g>
			</g>
		</g>
	</g>
</g>
<g id="Speech_Bubbles">
	<g>
		<g>
			<g>
				<g>
					<g>
						<path style="fill:#455A64;" d="M406.213,121.326l-2.979,0.198l-5.899,9.491l0.395,5.946c0,0-4.585,0.589-4.561-7.233
							c0.025-7.822-0.43-5.8-0.43-5.8s-9.779,0.612-10.647-0.183c-0.632-0.578-1.544-10.271-1.997-15.531
							c-0.227-2.648,1.235-5.222,3.659-6.012c0.344-0.113,0.695-0.188,1.043-0.212c2.438-0.162,15.028,0.993,15.028,0.993
							l5.145-0.342L406.213,121.326z"/>
					</g>
				</g>
				<g>
					<g>
						<polygon style="fill:#455A64;" points="414.849,122.392 411.663,102.14 406.562,102.479 407.888,122.442 						"/>
					</g>
				</g>
			</g>
		</g>
		<g>
			<g>
				<g>
					<path style="fill:#263238;" d="M336.446,139.521c0.005-0.017,0.151,0.018,0.428,0.103c0.141,0.037,0.309,0.1,0.499,0.193
						c0.195,0.084,0.417,0.188,0.649,0.339c0.943,0.55,2.203,1.684,2.966,3.538c0.37,0.92,0.616,2.016,0.538,3.198
						c-0.087,1.175-0.503,2.431-1.32,3.485c-0.792,1.066-1.934,1.957-3.276,2.49c-1.333,0.554-2.902,0.716-4.407,0.338
						c-1.496-0.414-2.78-1.33-3.666-2.47c-0.904-1.127-1.457-2.466-1.62-3.784c-0.19-1.321,0.068-2.619,0.573-3.683
						c0.516-1.067,1.271-1.898,2.047-2.515c1.58-1.235,3.236-1.599,4.327-1.611c0.276-0.016,0.521,0.003,0.732,0.026
						c0.212,0.013,0.388,0.041,0.529,0.079c0.283,0.063,0.427,0.104,0.424,0.122c-0.009,0.057-0.603-0.101-1.674-0.024
						c-1.055,0.072-2.63,0.482-4.106,1.695c-0.725,0.606-1.423,1.408-1.888,2.413c-0.454,1.004-0.678,2.203-0.488,3.435
						c0.32,2.432,2.154,5.05,4.943,5.814c2.802,0.712,5.688-0.659,7.168-2.615c0.774-0.977,1.171-2.131,1.272-3.228
						c0.092-1.104-0.118-2.146-0.45-3.031c-0.684-1.784-1.851-2.918-2.733-3.502C337.02,139.731,336.425,139.575,336.446,139.521z"
						/>
				</g>
			</g>
			<g>
				<g>
					<path style="fill:#263238;" d="M315.631,157.332c0.003-0.022,0.399,0.022,1.013,0.368c0.605,0.34,1.415,1.054,1.911,2.234
						c0.24,0.586,0.402,1.286,0.355,2.044c-0.052,0.754-0.317,1.564-0.84,2.242c-1.003,1.355-2.957,2.314-4.932,1.82
						c-1.963-0.545-3.188-2.346-3.391-4.019c-0.12-0.848,0.049-1.683,0.377-2.365c0.334-0.683,0.82-1.212,1.318-1.602
						c1.014-0.781,2.071-1.002,2.765-0.999c0.705,0.002,1.07,0.16,1.062,0.18c-0.009,0.049-0.385-0.037-1.052,0.022
						c-0.658,0.057-1.634,0.323-2.544,1.083c-0.902,0.731-1.699,2.073-1.451,3.617c0.201,1.499,1.339,3.112,3.048,3.579
						c1.716,0.438,3.502-0.403,4.417-1.607c0.978-1.219,0.949-2.78,0.525-3.861c-0.416-1.11-1.134-1.824-1.677-2.198
						C315.984,157.49,315.615,157.379,315.631,157.332z"/>
				</g>
			</g>
			<g>
				<g>
					<path style="fill:#263238;" d="M345.938,108.969c0,0,0.031-0.283,0.117-0.833c0.092-0.564,0.224-1.378,0.397-2.44
						c0.089-0.538,0.189-1.137,0.299-1.798c0.141-0.655,0.36-1.357,0.563-2.126c0.211-0.768,0.437-1.593,0.68-2.476
						c0.105-0.447,0.265-0.891,0.451-1.343c0.176-0.455,0.357-0.923,0.543-1.405c1.365-3.899,3.781-8.416,7.323-13.093
						c3.563-4.652,8.48-9.375,14.872-13.122c0.802-0.462,1.613-0.929,2.434-1.401c0.847-0.422,1.73-0.796,2.608-1.203
						c0.892-0.376,1.752-0.859,2.697-1.16c0.937-0.32,1.883-0.643,2.839-0.97c0.479-0.16,0.957-0.334,1.443-0.485
						c0.497-0.117,0.996-0.234,1.497-0.352c1.003-0.236,2.016-0.474,3.039-0.714c1.028-0.209,2.088-0.297,3.146-0.453
						c1.063-0.111,2.125-0.353,3.217-0.335c2.176-0.049,4.391-0.23,6.634,0.025c1.12,0.095,2.258,0.121,3.389,0.274
						c1.126,0.194,2.261,0.39,3.404,0.587c0.569,0.109,1.15,0.175,1.716,0.32c0.563,0.157,1.128,0.314,1.694,0.472
						c1.129,0.329,2.285,0.605,3.415,0.984c2.211,0.895,4.522,1.645,6.66,2.855c0.546,0.278,1.093,0.557,1.642,0.837
						c0.273,0.143,0.553,0.274,0.821,0.426l0.782,0.5c1.044,0.669,2.094,1.341,3.15,2.017c1.022,0.724,1.987,1.541,2.992,2.314
						c0.489,0.403,1.019,0.761,1.478,1.204l1.387,1.325c1.93,1.699,3.554,3.727,5.27,5.701c0.757,1.067,1.517,2.139,2.282,3.217
						l0.573,0.809l0.5,0.859l0.993,1.73l0.997,1.738l0.837,1.83l0.833,1.841l0.418,0.924c0.121,0.316,0.221,0.639,0.333,0.959
						c0.437,1.283,0.875,2.572,1.315,3.866c0.312,1.33,0.626,2.666,0.94,4.006c1.058,5.403,1.296,11.036,0.686,16.662
						c-0.757,5.61-2.338,11.024-4.662,16.017c-0.627,1.226-1.252,2.448-1.874,3.665c-0.738,1.15-1.473,2.297-2.205,3.438
						l-0.553,0.852l-0.627,0.796l-1.251,1.588l-1.251,1.576l-1.386,1.448l-1.38,1.441l-0.691,0.714l-0.751,0.648
						c-1,0.863-1.996,1.721-2.988,2.576c-2.14,1.505-4.204,3.085-6.485,4.271l-1.665,0.954c-0.552,0.321-1.153,0.541-1.724,0.815
						c-1.161,0.509-2.295,1.07-3.461,1.529c-1.188,0.403-2.369,0.804-3.543,1.202l-0.879,0.298c-0.297,0.083-0.6,0.144-0.9,0.217
						c-0.6,0.14-1.198,0.279-1.795,0.419c-2.366,0.661-4.79,0.835-7.151,1.173c-1.188,0.096-2.376,0.087-3.551,0.136
						c-0.588,0.017-1.174,0.034-1.758,0.051c-0.584,0.004-1.164-0.07-1.742-0.102c-1.157-0.083-2.306-0.165-3.446-0.247
						c-1.135-0.123-2.246-0.37-3.356-0.548c-2.238-0.291-4.346-0.999-6.447-1.569c-1.064-0.245-2.037-0.735-3.042-1.098
						c-0.989-0.406-1.997-0.745-2.945-1.195c-0.935-0.479-1.861-0.953-2.778-1.423c-0.459-0.235-0.915-0.469-1.369-0.701
						c-0.43-0.274-0.859-0.546-1.285-0.818c-0.85-0.547-1.691-1.087-2.523-1.623c-0.844-0.518-1.564-1.194-2.339-1.773
						c-0.755-0.606-1.523-1.181-2.243-1.795c-0.683-0.656-1.359-1.304-2.026-1.945c-5.305-5.172-8.945-10.937-11.287-16.308
						c-2.315-5.39-3.577-10.354-3.965-14.467c-0.065-0.512-0.129-1.01-0.19-1.494c-0.072-0.483-0.12-0.952-0.115-1.412
						c-0.023-0.915-0.045-1.771-0.066-2.566c-0.012-0.794-0.056-1.528-0.036-2.198c0.052-0.668,0.099-1.274,0.141-1.817
						c0.087-1.073,0.154-1.894,0.201-2.464C345.9,109.252,345.938,108.969,345.938,108.969s-0.003,0.286-0.033,0.842
						c-0.034,0.57-0.084,1.391-0.149,2.464c-0.035,0.542-0.073,1.147-0.116,1.814c-0.012,0.668,0.041,1.4,0.061,2.192
						c0.028,0.793,0.057,1.646,0.089,2.557c-0.001,0.457,0.051,0.925,0.126,1.406c0.065,0.481,0.132,0.977,0.201,1.487
						c0.418,4.092,1.703,9.026,4.031,14.374c2.354,5.33,5.993,11.044,11.278,16.162c0.665,0.634,1.337,1.276,2.018,1.924
						c0.717,0.607,1.481,1.175,2.232,1.775c0.771,0.573,1.487,1.241,2.326,1.753c0.828,0.529,1.664,1.063,2.509,1.603
						c0.423,0.268,0.849,0.537,1.276,0.808c0.451,0.229,0.905,0.46,1.36,0.692c0.911,0.464,1.831,0.932,2.76,1.405
						c0.941,0.445,1.942,0.778,2.924,1.179c0.998,0.357,1.963,0.842,3.02,1.082c2.085,0.56,4.175,1.259,6.396,1.542
						c1.101,0.173,2.203,0.417,3.328,0.537c1.13,0.079,2.269,0.159,3.416,0.239c0.574,0.03,1.149,0.104,1.727,0.098
						c0.579-0.018,1.16-0.036,1.743-0.054c1.165-0.05,2.342-0.042,3.519-0.14c2.339-0.34,4.741-0.513,7.084-1.173
						c0.591-0.138,1.183-0.277,1.778-0.417c0.296-0.072,0.597-0.133,0.891-0.216l0.871-0.297c1.163-0.396,2.332-0.794,3.508-1.195
						c1.155-0.456,2.276-1.013,3.426-1.518c0.566-0.272,1.161-0.49,1.707-0.809l1.648-0.947c2.259-1.177,4.301-2.744,6.42-4.236
						c0.981-0.847,1.966-1.698,2.957-2.553l0.744-0.642l0.684-0.708l1.365-1.428l1.372-1.434l1.238-1.562l1.238-1.573l0.621-0.789
						l0.547-0.844c0.725-1.13,1.452-2.265,2.182-3.405c0.616-1.205,1.233-2.415,1.854-3.629c2.299-4.944,3.862-10.303,4.613-15.858
						c0.604-5.571,0.369-11.147-0.676-16.496c-0.311-1.327-0.62-2.649-0.929-3.966c-0.435-1.281-0.869-2.557-1.301-3.828
						c-0.111-0.317-0.21-0.638-0.329-0.95l-0.414-0.914l-0.824-1.824l-0.827-1.813l-0.987-1.721l-0.982-1.714l-0.494-0.851
						l-0.568-0.801c-0.756-1.067-1.508-2.13-2.257-3.188c-1.699-1.956-3.305-3.967-5.215-5.651l-1.372-1.314
						c-0.454-0.44-0.979-0.794-1.463-1.194c-0.995-0.767-1.95-1.577-2.961-2.296c-1.046-0.671-2.085-1.339-3.118-2.002l-0.774-0.497
						c-0.266-0.151-0.543-0.282-0.813-0.423c-0.543-0.278-1.085-0.555-1.625-0.831c-2.116-1.202-4.406-1.947-6.595-2.838
						c-1.119-0.377-2.264-0.652-3.382-0.98c-0.562-0.158-1.121-0.315-1.678-0.471c-0.56-0.145-1.136-0.211-1.7-0.32
						c-1.133-0.197-2.257-0.393-3.373-0.588c-1.121-0.154-2.249-0.181-3.36-0.278c-2.224-0.258-4.421-0.081-6.578-0.038
						c-1.083-0.021-2.136,0.218-3.191,0.326c-1.049,0.153-2.101,0.237-3.122,0.442c-1.015,0.236-2.02,0.47-3.016,0.701
						c-0.498,0.116-0.993,0.231-1.487,0.345c-0.483,0.149-0.958,0.32-1.433,0.478c-0.949,0.321-1.89,0.639-2.82,0.954
						c-0.938,0.295-1.793,0.773-2.679,1.144c-0.873,0.402-1.751,0.77-2.593,1.187c-0.816,0.467-1.623,0.928-2.421,1.384
						c-6.358,3.7-11.263,8.373-14.828,12.982c-3.544,4.633-5.976,9.115-7.364,12.987c-0.189,0.479-0.373,0.944-0.552,1.395
						c-0.189,0.448-0.352,0.89-0.46,1.334c-0.25,0.877-0.483,1.698-0.701,2.461c-0.21,0.764-0.436,1.462-0.585,2.114
						c-0.119,0.658-0.226,1.254-0.323,1.789c-0.195,1.057-0.344,1.867-0.447,2.428C346.004,108.691,345.938,108.969,345.938,108.969
						z"/>
				</g>
			</g>
		</g>
	</g>
	<g>
		<g>
			<g>
				<path style="fill:#263238;" d="M188.887,126.082c0.014,0.056-0.595,0.14-1.554,0.623c-0.946,0.473-2.241,1.458-3.136,3.146
					c-0.436,0.838-0.771,1.847-0.813,2.954c-0.033,1.101,0.222,2.294,0.872,3.358c1.232,2.121,3.931,3.83,6.799,3.463
					c2.861-0.422,4.998-2.799,5.61-5.174c0.338-1.2,0.26-2.418-0.069-3.469c-0.341-1.054-0.936-1.935-1.583-2.624
					c-1.319-1.383-2.832-1.98-3.871-2.179c-1.053-0.205-1.662-0.121-1.664-0.178c-0.002-0.018,0.147-0.041,0.435-0.07
					c0.144-0.02,0.323-0.027,0.535-0.014c0.213,0.002,0.457,0.013,0.73,0.063c1.081,0.144,2.681,0.706,4.1,2.123
					c0.696,0.706,1.345,1.623,1.728,2.744c0.373,1.118,0.473,2.437,0.124,3.726c-0.32,1.289-1.032,2.551-2.065,3.561
					c-1.017,1.025-2.403,1.778-3.938,2.009c-1.539,0.193-3.077-0.157-4.333-0.868c-1.268-0.692-2.294-1.715-2.951-2.868
					c-0.684-1.146-0.946-2.442-0.889-3.62c0.065-1.183,0.441-2.241,0.92-3.109c0.982-1.748,2.37-2.722,3.373-3.154
					c0.249-0.121,0.481-0.198,0.685-0.258c0.2-0.07,0.374-0.112,0.519-0.131C188.734,126.082,188.883,126.064,188.887,126.082z"/>
			</g>
		</g>
		<g>
			<g>
				<path style="fill:#263238;" d="M207.874,142.226c0.011,0.048-0.369,0.114-0.962,0.426c-0.585,0.305-1.383,0.928-1.931,1.979
					c-0.551,1.022-0.769,2.568,0.054,3.896c0.763,1.306,2.434,2.356,4.191,2.129c1.753-0.257,3.078-1.721,3.459-3.184
					c0.433-1.502-0.195-2.931-1.003-3.766c-0.812-0.864-1.749-1.247-2.395-1.382c-0.655-0.14-1.039-0.1-1.041-0.149
					c-0.005-0.021,0.376-0.133,1.076-0.05c0.689,0.081,1.712,0.428,2.624,1.326c0.448,0.448,0.866,1.032,1.115,1.75
					c0.243,0.716,0.31,1.566,0.088,2.393c-0.404,1.637-1.838,3.275-3.852,3.579c-2.02,0.252-3.844-0.937-4.676-2.403
					c-0.437-0.736-0.603-1.572-0.563-2.327c0.045-0.759,0.29-1.434,0.599-1.986c0.635-1.112,1.526-1.723,2.167-1.987
					C207.476,142.2,207.873,142.204,207.874,142.226z"/>
			</g>
		</g>
		<g>
			<g>
				<g>
					<g>
						<g>
							<path style="fill:#E8505B;" d="M134.083,87.336h-3.23l-7.048-9.822v-6.446c0,0-4.992-0.307-4.405,8.134
								c0.588,8.441-0.048,6.292-0.048,6.292s-10.599,0.041-11.48,0.962c-0.641,0.669-0.93,11.198-1.041,16.908
								c-0.056,2.874,1.707,5.548,4.381,6.227c0.38,0.097,0.764,0.154,1.141,0.154c2.644,0,16.151-2.149,16.151-2.149h5.579V87.336z
								"/>
						</g>
					</g>
					<g>
						<g>
							<polygon style="fill:#E8505B;" points="143.329,85.566 141.342,107.654 135.811,107.654 135.811,86.01 							"/>
						</g>
					</g>
				</g>
			</g>
			<g>
				<g>
					<path style="fill:#263238;" d="M183.158,90.404c0,0-0.033-0.308-0.073-0.909c-0.037-0.614-0.09-1.504-0.161-2.666
						c-0.033-0.587-0.071-1.242-0.112-1.964c-0.074-0.719-0.226-1.499-0.351-2.347c-0.133-0.848-0.276-1.76-0.43-2.735
						c-0.058-0.491-0.175-0.987-0.319-1.493c-0.133-0.508-0.27-1.032-0.41-1.571c-0.983-4.341-3.008-9.473-6.207-14.914
						c-3.225-5.418-7.881-11.08-14.227-15.887c-0.797-0.594-1.603-1.195-2.419-1.804c-0.85-0.558-1.745-1.069-2.63-1.614
						c-0.445-0.27-0.892-0.541-1.342-0.813c-0.447-0.277-0.898-0.554-1.386-0.766c-0.958-0.46-1.926-0.925-2.904-1.394
						c-0.49-0.232-0.977-0.478-1.477-0.701c-0.515-0.188-1.032-0.376-1.552-0.566c-1.039-0.379-2.089-0.762-3.148-1.148
						c-1.069-0.354-2.188-0.582-3.295-0.883c-0.556-0.142-1.115-0.285-1.675-0.429c-0.281-0.068-0.56-0.152-0.845-0.208
						l-0.865-0.131c-2.312-0.329-4.649-0.806-7.071-0.82c-1.206-0.042-2.421-0.16-3.645-0.141c-1.224,0.063-2.458,0.126-3.701,0.19
						c-0.62,0.043-1.247,0.039-1.868,0.121c-0.619,0.095-1.241,0.19-1.865,0.286c-1.245,0.206-2.51,0.352-3.762,0.61
						c-2.468,0.671-5.025,1.171-7.456,2.186c-0.616,0.226-1.234,0.453-1.855,0.68c-0.309,0.117-0.623,0.221-0.929,0.348
						l-0.896,0.433c-1.197,0.577-2.401,1.158-3.612,1.742c-1.181,0.64-2.313,1.385-3.482,2.079
						c-0.572,0.366-1.183,0.678-1.728,1.091l-1.646,1.232c-2.273,1.559-4.26,3.51-6.342,5.389c-0.943,1.038-1.89,2.081-2.842,3.129
						l-0.715,0.787c-0.222,0.277-0.427,0.567-0.642,0.85l-1.28,1.713l-1.286,1.72l-1.126,1.839l-1.124,1.851l-0.564,0.928
						c-0.169,0.32-0.318,0.652-0.478,0.977c-0.63,1.309-1.263,2.623-1.898,3.942c-0.504,1.375-1.009,2.755-1.517,4.139
						c-1.823,5.61-2.805,11.57-2.885,17.634c0.08,6.066,1.059,12.027,2.881,17.64c0.507,1.385,1.013,2.766,1.517,4.141
						c0.635,1.319,1.268,2.634,1.899,3.943l0.477,0.978l0.564,0.929l1.124,1.851l1.125,1.84l1.286,1.72l1.28,1.713l0.642,0.85
						l0.715,0.787c0.952,1.048,1.899,2.091,2.842,3.13c2.081,1.88,4.07,3.83,6.343,5.39l1.646,1.232
						c0.545,0.414,1.156,0.726,1.728,1.092c1.169,0.693,2.301,1.439,3.482,2.079c1.211,0.584,2.416,1.165,3.613,1.743l0.896,0.433
						c0.305,0.127,0.62,0.232,0.929,0.348c0.62,0.227,1.239,0.454,1.855,0.68c2.431,1.015,4.988,1.515,7.457,2.186
						c1.252,0.258,2.518,0.404,3.762,0.61c0.624,0.096,1.245,0.191,1.865,0.286c0.621,0.082,1.248,0.078,1.868,0.121
						c1.243,0.064,2.477,0.127,3.701,0.19c1.225,0.018,2.44-0.1,3.646-0.142c2.422-0.014,4.76-0.492,7.072-0.821l0.865-0.131
						c0.285-0.056,0.564-0.14,0.845-0.208c0.561-0.144,1.119-0.287,1.676-0.429c1.107-0.302,2.226-0.529,3.295-0.884
						c1.059-0.386,2.109-0.769,3.148-1.148c0.52-0.189,1.037-0.378,1.552-0.566c0.495-0.235,0.987-0.469,1.477-0.701
						c0.978-0.47,1.946-0.934,2.904-1.394c0.489-0.212,0.939-0.49,1.386-0.766c0.45-0.272,0.897-0.543,1.342-0.813
						c0.885-0.546,1.781-1.056,2.63-1.615c0.816-0.608,1.622-1.209,2.419-1.804c6.345-4.808,11.001-10.47,14.225-15.887
						c0.408-0.677,0.826-1.332,1.205-1.993c0.333-0.686,0.659-1.36,0.979-2.021c0.321-0.661,0.635-1.309,0.943-1.945
						c0.149-0.32,0.318-0.627,0.446-0.948c0.12-0.325,0.238-0.646,0.355-0.963c0.469-1.27,0.918-2.486,1.346-3.645
						c0.395-1.17,0.631-2.326,0.931-3.397c0.141-0.539,0.277-1.062,0.41-1.571c0.144-0.506,0.261-1.002,0.319-1.493
						c0.153-0.975,0.296-1.887,0.43-2.735c0.125-0.848,0.277-1.627,0.351-2.347c0.041-0.722,0.078-1.377,0.112-1.964
						c0.07-1.162,0.124-2.052,0.161-2.666C183.124,90.712,183.158,90.404,183.158,90.404s0.002,0.308-0.019,0.91
						c-0.025,0.615-0.062,1.507-0.109,2.672c-0.026,0.589-0.055,1.246-0.087,1.97c-0.066,0.722-0.21,1.504-0.327,2.355
						c-0.126,0.851-0.262,1.768-0.407,2.747c-0.055,0.494-0.168,0.992-0.309,1.501c-0.129,0.511-0.263,1.038-0.4,1.579
						c-0.293,1.077-0.523,2.24-0.912,3.417c-0.423,1.167-0.867,2.39-1.331,3.669c-0.116,0.32-0.233,0.643-0.352,0.97
						c-0.127,0.323-0.295,0.633-0.443,0.955c-0.306,0.64-0.619,1.293-0.938,1.959c-0.319,0.666-0.644,1.344-0.975,2.036
						c-0.378,0.666-0.795,1.327-1.202,2.008c-3.217,5.46-7.88,11.173-14.252,16.031c-0.801,0.6-1.611,1.208-2.43,1.822
						c-0.853,0.564-1.753,1.081-2.643,1.633c-0.447,0.273-0.897,0.547-1.349,0.822c-0.45,0.279-0.902,0.56-1.394,0.775
						c-0.964,0.466-1.938,0.936-2.921,1.412c-0.493,0.235-0.983,0.483-1.486,0.71c-0.518,0.19-1.038,0.382-1.562,0.574
						c-1.046,0.384-2.103,0.772-3.169,1.164c-1.076,0.359-2.203,0.592-3.318,0.898c-0.56,0.145-1.123,0.29-1.688,0.436
						c-0.283,0.069-0.564,0.154-0.851,0.211l-0.871,0.134c-2.329,0.337-4.685,0.821-7.126,0.841
						c-1.215,0.045-2.44,0.165-3.674,0.149c-1.234-0.061-2.478-0.123-3.731-0.185c-0.625-0.042-1.258-0.038-1.884-0.119
						c-0.625-0.095-1.252-0.19-1.881-0.285c-1.255-0.205-2.532-0.351-3.795-0.61c-2.49-0.672-5.07-1.175-7.524-2.195
						c-0.622-0.227-1.246-0.455-1.872-0.684c-0.312-0.117-0.629-0.222-0.937-0.35l-0.905-0.435
						c-1.208-0.581-2.424-1.166-3.646-1.754c-1.192-0.645-2.335-1.395-3.515-2.094c-0.578-0.369-1.194-0.684-1.744-1.1l-1.662-1.242
						c-2.294-1.572-4.303-3.538-6.403-5.433c-0.952-1.047-1.909-2.099-2.87-3.156l-0.722-0.794l-0.648-0.857l-1.293-1.728
						l-1.298-1.736l-1.137-1.856l-1.135-1.868l-0.569-0.937l-0.482-0.987c-0.637-1.321-1.276-2.647-1.918-3.979
						c-0.509-1.388-1.02-2.781-1.533-4.179c-1.842-5.664-2.831-11.682-2.91-17.803c0.08-6.119,1.072-12.135,2.914-17.797
						c0.513-1.398,1.024-2.79,1.533-4.177c0.642-1.331,1.281-2.657,1.917-3.978c0.162-0.329,0.312-0.663,0.483-0.986l0.569-0.937
						l1.135-1.868l1.138-1.855l1.298-1.735l1.293-1.727c0.217-0.285,0.425-0.578,0.649-0.857l0.722-0.794
						c0.961-1.057,1.918-2.108,2.87-3.155c2.101-1.895,4.109-3.86,6.403-5.432l1.662-1.241c0.55-0.416,1.166-0.731,1.744-1.1
						c1.18-0.699,2.323-1.449,3.514-2.093c1.222-0.588,2.438-1.173,3.646-1.754l0.905-0.435c0.308-0.128,0.626-0.233,0.937-0.35
						c0.626-0.229,1.25-0.457,1.872-0.684c2.453-1.02,5.032-1.523,7.522-2.194c1.262-0.259,2.539-0.405,3.794-0.61
						c0.629-0.095,1.256-0.191,1.881-0.285c0.626-0.081,1.258-0.077,1.884-0.119c1.253-0.062,2.496-0.124,3.731-0.185
						c1.234-0.017,2.459,0.104,3.674,0.148c2.441,0.02,4.796,0.504,7.125,0.84l0.871,0.134c0.287,0.056,0.568,0.142,0.851,0.211
						c0.565,0.146,1.128,0.291,1.688,0.436c1.115,0.306,2.242,0.539,3.318,0.897c1.066,0.392,2.122,0.779,3.169,1.164
						c0.523,0.192,1.044,0.383,1.561,0.574c0.503,0.226,0.993,0.475,1.486,0.709c0.984,0.475,1.958,0.946,2.921,1.412
						c0.492,0.215,0.944,0.495,1.394,0.775c0.452,0.275,0.902,0.549,1.349,0.822c0.89,0.552,1.789,1.069,2.643,1.633
						c0.819,0.614,1.63,1.222,2.43,1.822c6.373,4.858,11.036,10.57,14.254,16.03c3.192,5.484,5.197,10.649,6.154,15.014
						c0.137,0.542,0.271,1.068,0.4,1.579c0.14,0.509,0.254,1.007,0.309,1.501c0.145,0.979,0.281,1.896,0.407,2.747
						c0.117,0.852,0.261,1.634,0.327,2.356c0.032,0.724,0.061,1.381,0.087,1.97c0.048,1.165,0.084,2.057,0.109,2.672
						C183.16,90.096,183.158,90.404,183.158,90.404z"/>
				</g>
			</g>
		</g>
	</g>
</g>
<g id="Question_Marks">
	<g>
		<g>
			<path style="fill:#263238;" d="M272.938,109.91c-0.014,0-0.026,0-0.039,0c-0.828-0.021-1.482-0.71-1.462-1.538l0.34-13.351
				c0.013-0.47,0.244-0.907,0.626-1.181c0.383-0.274,0.871-0.354,1.318-0.214c2.415,0.749,5.149,0.407,7.5-0.938
				c2.184-1.249,3.732-3.227,4.247-5.426c0.513-2.188,0.011-4.661-1.378-6.786c-1.491-2.283-3.746-3.852-6.187-4.305
				c-4.913-0.914-10.296,2.363-12.007,7.298c-0.271,0.782-1.129,1.197-1.908,0.925c-0.783-0.271-1.197-1.126-0.926-1.909
				c2.177-6.278,9.081-10.434,15.388-9.265c3.243,0.602,6.215,2.648,8.152,5.614c1.834,2.808,2.485,6.129,1.786,9.111
				c-0.704,3.006-2.773,5.684-5.677,7.346c-2.477,1.417-5.304,1.974-7.981,1.617l-0.294,11.539
				C274.416,109.264,273.749,109.91,272.938,109.91z"/>
		</g>
		<g>
			<path style="fill:#263238;" d="M275.262,116.506c0,1.212-0.982,2.194-2.194,2.194c-1.212,0-2.194-0.982-2.194-2.194
				c0-1.212,0.982-2.194,2.194-2.194C274.28,114.312,275.262,115.294,275.262,116.506z"/>
		</g>
	</g>
	<g>
		<g>
			<path style="fill:#263238;" d="M108.804,263.824c-2.251,0-4.474-0.651-6.256-1.988c-2.101-1.575-3.497-4.081-3.83-6.875
				c-0.315-2.648,0.396-5.249,1.953-7.133c1.57-1.901,3.995-3.083,6.653-3.242c2.121-0.132,4.201,0.393,5.925,1.456l3.954-7.495
				c0.386-0.732,1.294-1.013,2.027-0.626c0.732,0.387,1.013,1.294,0.627,2.027l-4.781,9.061c-0.219,0.416-0.621,0.705-1.085,0.781
				c-0.46,0.078-0.936-0.069-1.276-0.394c-1.336-1.271-3.231-1.934-5.212-1.814c-1.83,0.109-3.478,0.896-4.519,2.158
				c-1.037,1.256-1.506,3.03-1.288,4.869c0.236,1.983,1.202,3.743,2.65,4.829c2.881,2.161,7.591,1.749,10.284-0.897
				c0.59-0.582,1.539-0.573,2.121,0.018c0.58,0.591,0.572,1.541-0.019,2.121C114.625,262.751,111.691,263.824,108.804,263.824z"/>
		</g>
		<g>
			<path style="fill:#263238;" d="M119.69,232.89c0.413-0.833,1.422-1.173,2.255-0.761c0.833,0.413,1.173,1.422,0.761,2.255
				c-0.413,0.833-1.422,1.173-2.255,0.761C119.618,234.732,119.277,233.722,119.69,232.89z"/>
		</g>
	</g>
	<g>
		<g>
			<path style="fill:#263238;" d="M411.537,238.582c-0.465,0-0.923-0.215-1.217-0.621l-6.003-8.302
				c-0.275-0.381-0.356-0.869-0.219-1.318c0.138-0.449,0.477-0.808,0.919-0.97c1.732-0.633,3.167-2.043,3.937-3.867
				c0.714-1.689,0.739-3.515,0.07-5.008c-0.666-1.486-2.049-2.694-3.795-3.313c-1.88-0.666-3.887-0.581-5.502,0.235
				c-3.215,1.625-4.935,6.029-3.756,9.617c0.259,0.787-0.17,1.635-0.957,1.893c-0.785,0.259-1.635-0.169-1.893-0.956
				c-1.644-5.001,0.713-10.936,5.252-13.23c2.344-1.185,5.208-1.324,7.858-0.385c2.515,0.891,4.53,2.682,5.53,4.914
				c1.008,2.25,0.991,4.948-0.045,7.401c-0.828,1.961-2.215,3.591-3.931,4.665l4.965,6.867c0.485,0.671,0.334,1.609-0.337,2.094
				C412.149,238.49,411.841,238.582,411.537,238.582z"/>
		</g>
		<g>
			<path style="fill:#263238;" d="M416.719,240.939c0.564,0.739,0.421,1.795-0.318,2.359c-0.739,0.564-1.795,0.421-2.359-0.318
				c-0.564-0.739-0.421-1.795,0.318-2.359C415.1,240.057,416.156,240.2,416.719,240.939z"/>
		</g>
	</g>
</g>
</svg>
